<?xml version="1.0" encoding="UTF-8" standalone="no"?>
<svg
   xmlns:dc="http://purl.org/dc/elements/1.1/"
   xmlns:cc="http://creativecommons.org/ns#"
   xmlns:rdf="http://www.w3.org/1999/02/22-rdf-syntax-ns#"
   xmlns:svg="http://www.w3.org/2000/svg"
   xmlns="http://www.w3.org/2000/svg"
   xmlns:sodipodi="http://sodipodi.sourceforge.net/DTD/sodipodi-0.dtd"
   xmlns:inkscape="http://www.inkscape.org/namespaces/inkscape"
   version="1.1"
   x="0px"
   y="0px"
   viewBox="0 0 88 82.00544"
   id="svg10"
   sodipodi:docname="noun_Pharmacy_3125931.svg"
   inkscape:version="0.92.3 (2405546, 2018-03-11)"
   width="88"
   height="82.00544">
  <metadata
     id="metadata16">
    <rdf:RDF>
      <cc:Work
         rdf:about="">
        <dc:format>image/svg+xml</dc:format>
        <dc:type
           rdf:resource="http://purl.org/dc/dcmitype/StillImage" />
      </cc:Work>
    </rdf:RDF>
  </metadata>
  <defs
     id="defs14" />
  <sodipodi:namedview
     pagecolor="#ffffff"
     bordercolor="#666666"
     borderopacity="1"
     objecttolerance="10"
     gridtolerance="10"
     guidetolerance="10"
     inkscape:pageopacity="0"
     inkscape:pageshadow="2"
     inkscape:window-width="1366"
     inkscape:window-height="729"
     id="namedview12"
     showgrid="false"
     inkscape:zoom="1.888"
     inkscape:cx="-40.745762"
     inkscape:cy="39.943413"
     inkscape:window-x="0"
     inkscape:window-y="0"
     inkscape:window-maximized="1"
     inkscape:current-layer="g4" />
  <g
     transform="translate(-6,-973.85948)"
     id="g4">
    <path
       style="color:#000000;font-style:normal;font-variant:normal;font-weight:normal;font-stretch:normal;font-size:medium;line-height:normal;font-family:Sans;-inkscape-font-specification:Sans;text-indent:0;text-align:start;text-decoration:none;text-decoration-line:none;letter-spacing:normal;word-spacing:normal;text-transform:none;writing-mode:lr-tb;direction:ltr;baseline-shift:baseline;text-anchor:start;display:inline;overflow:visible;visibility:visible;opacity:1;fill:#000000;fill-opacity:1;fill-rule:nonzero;stroke:none;stroke-width:3.99999952;marker:none;enable-background:accumulate"
       d="m 15.875,973.86267 c -1.400492,0.038 -2.836941,0.4099 -4.125,1.15625 -4.1252783,2.39038 -5.5005242,7.7143 -3.125,11.84375 l 7.75,13.50003 H 8 a 2.0001998,2.0001998 0 0 0 -2,2 v 7.1875 a 2.0001998,2.0001998 0 0 0 2,2 h 2.09375 v 0.031 c 0,16.9746 9.216086,32.1402 22.71875,36.5938 a 2.011017,2.011017 0 1 0 1.28125,-3.8125 c -11.41486,-3.765 -20,-17.2672 -20,-32.7813 v -2.0312 a 2.0001998,2.0001998 0 0 0 -2,-2 H 10 v -3.1875 h 80 v 3.1875 h -2.09375 a 2.0001998,2.0001998 0 0 0 -2,2 v 2.0312 c 0,15.5141 -8.58514,29.0163 -20,32.7813 a 2.011017,2.011017 0 1 0 1.28125,3.8125 c 13.502664,-4.4536 22.71875,-19.6192 22.71875,-36.5938 v -0.031 H 92 a 2.0001998,2.0001998 0 0 0 2,-2 v -7.1875 a 2.0001998,2.0001998 0 0 0 -2,-2 H 20.96875 L 12.0625,984.86267 c -1.315777,-2.28725 -0.549487,-5.06068 1.71875,-6.375 0.709915,-0.41135 1.440814,-0.60476 2.1875,-0.625 1.656136,-0.0449 3.290479,0.75318 4.1875,2.3125 l 8.53125,14.875 a 2.0020131,2.0020131 0 1 0 3.46875,-2 l -8.5625,-14.875 c -1.640747,-2.85216 -4.651094,-4.39566 -7.71875,-4.3125 z m 28.4375,36.75003 a 2.0001998,2.0001998 0 0 0 -1.78125,2 v 6.7812 h -6.6875 a 2.0001998,2.0001998 0 0 0 -2,2 v 11.125 a 2.0001998,2.0001998 0 0 0 2,2 h 6.6875 v 6.7813 a 2.0001998,2.0001998 0 0 0 2,2 h 10.9375 a 2.0001998,2.0001998 0 0 0 2,-2 v -6.7813 h 6.6875 a 2.0001998,2.0001998 0 0 0 2,-2 v -11.125 a 2.0001998,2.0001998 0 0 0 -2,-2 h -6.6875 v -6.7812 a 2.0001998,2.0001998 0 0 0 -2,-2 h -10.9375 a 2.0001998,2.0001998 0 0 0 -0.21875,0 z m 2.21875,4 h 6.9375 v 6.7812 a 2.0001998,2.0001998 0 0 0 2,2 h 6.6875 v 7.125 h -6.6875 a 2.0001998,2.0001998 0 0 0 -2,2 v 6.7813 h -6.9375 v -6.7813 a 2.0001998,2.0001998 0 0 0 -2,-2 h -6.6875 v -7.125 h 6.6875 a 2.0001998,2.0001998 0 0 0 2,-2 z m -16.21875,37.25 a 2.0021961,2.0021961 0 1 0 0.1875,4 h 41 a 2.0001998,2.0001998 0 1 0 0,-4 h -41 a 2.0001998,2.0001998 0 0 0 -0.1875,0 z"
       id="path2"
       inkscape:connector-curvature="0" />
  </g>
</svg>
