<?xml version="1.0" encoding="UTF-8" standalone="no"?>
<svg
   xmlns:dc="http://purl.org/dc/elements/1.1/"
   xmlns:cc="http://creativecommons.org/ns#"
   xmlns:rdf="http://www.w3.org/1999/02/22-rdf-syntax-ns#"
   xmlns:svg="http://www.w3.org/2000/svg"
   xmlns="http://www.w3.org/2000/svg"
   xmlns:sodipodi="http://sodipodi.sourceforge.net/DTD/sodipodi-0.dtd"
   xmlns:inkscape="http://www.inkscape.org/namespaces/inkscape"
   version="1.1"
   x="0px"
   y="0px"
   viewBox="0 0 49.814285 39.700001"
   enable-background="new 0 0 64 64"
   xml:space="preserve"
   id="svg18"
   sodipodi:docname="noun_hand with money_1380858.svg"
   width="49.814285"
   height="39.700001"
   inkscape:version="0.92.3 (2405546, 2018-03-11)"><metadata
     id="metadata24"><rdf:RDF><cc:Work
         rdf:about=""><dc:format>image/svg+xml</dc:format><dc:type
           rdf:resource="http://purl.org/dc/dcmitype/StillImage" /></cc:Work></rdf:RDF></metadata><defs
     id="defs22" /><sodipodi:namedview
     pagecolor="#ffffff"
     bordercolor="#666666"
     borderopacity="1"
     objecttolerance="10"
     gridtolerance="10"
     guidetolerance="10"
     inkscape:pageopacity="0"
     inkscape:pageshadow="2"
     inkscape:window-width="1366"
     inkscape:window-height="689"
     id="namedview20"
     showgrid="false"
     inkscape:zoom="2.95"
     inkscape:cx="24.9"
     inkscape:cy="11.9"
     inkscape:window-x="0"
     inkscape:window-y="0"
     inkscape:window-maximized="1"
     inkscape:current-layer="svg18" /><g
     id="g12"
     transform="translate(-7.1,-12.2)"
     style="fill:#999999;fill-opacity:1"><g
       id="g10"
       style="fill:#999999;fill-opacity:1"><path
         d="m 29.7,25 c 0.5,0.4 1.1,0.7 1.9,0.7 v 1.2 h 0.9 v -1.2 c 0.7,-0.1 1.3,-0.3 1.8,-0.7 0.4,-0.4 0.6,-1 0.6,-1.6 0,-0.7 -0.2,-1.3 -0.7,-1.7 -0.4,-0.4 -1.1,-0.8 -2,-1.1 -0.4,-0.2 -0.7,-0.4 -0.9,-0.5 -0.1,-0.2 -0.2,-0.4 -0.2,-0.6 0,-0.3 0.1,-0.5 0.2,-0.7 0.1,-0.2 0.4,-0.2 0.7,-0.2 0.3,0 0.5,0.1 0.7,0.3 0.2,0.2 0.3,0.5 0.3,0.9 h 2 v 0 c 0,-0.7 -0.2,-1.3 -0.6,-1.7 -0.4,-0.5 -1,-0.7 -1.7,-0.8 v -1.2 h -0.9 v 1.2 C 31,17.4 30.4,17.6 30,18 c -0.5,0.4 -0.7,1 -0.7,1.6 0,0.7 0.2,1.3 0.6,1.7 0.4,0.4 1.1,0.7 2,1.1 0.4,0.2 0.7,0.3 0.9,0.5 0.1,0.2 0.2,0.4 0.2,0.7 0,0.3 -0.1,0.5 -0.2,0.6 -0.1,0.2 -0.4,0.2 -0.7,0.2 -0.4,0 -0.7,-0.1 -0.9,-0.3 -0.2,-0.2 -0.3,-0.5 -0.3,-1 H 29 v 0 c 0,0.8 0.2,1.5 0.7,1.9 z"
         id="path2"
         inkscape:connector-curvature="0"
         style="fill:#999999;fill-opacity:1" /><path
         d="m 32,30.6 c 5.1,0 9.2,-4.1 9.2,-9.2 0,-5.1 -4.1,-9.2 -9.2,-9.2 -5.1,0 -9.2,4.1 -9.2,9.2 0,5.1 4.1,9.2 9.2,9.2 z m 0,-15.9 c 3.7,0 6.7,3 6.7,6.7 0,3.7 -3,6.7 -6.7,6.7 -3.7,0 -6.7,-3 -6.7,-6.7 0,-3.7 3,-6.7 6.7,-6.7 z"
         id="path4"
         inkscape:connector-curvature="0"
         style="fill:#999999;fill-opacity:1" /><path
         d="m 12.5,42.9 c -0.8,0 -1.5,0.7 -1.5,1.5 0,0.8 0.7,1.5 1.5,1.5 0.8,0 1.5,-0.7 1.5,-1.5 0,-0.8 -0.7,-1.5 -1.5,-1.5 z"
         id="path6"
         inkscape:connector-curvature="0"
         style="fill:#999999;fill-opacity:1" /><path
         d="m 56.7,34.9 v 0 c -1.3,-3.2 -4.8,-4.8 -8.1,-3.7 l -5.9,2 C 41.2,31.8 39.1,31.1 37,31.6 l -6.5,1.7 c -1.4,0.4 -2.9,0.1 -4.1,-0.6 -2,-1.1 -4.2,-1.7 -6.4,-1.7 0,0 0,0 0,0 h -2.2 v -2 c 0,-0.7 -0.6,-1.3 -1.3,-1.3 H 8.4 c -0.7,0 -1.3,0.6 -1.3,1.3 v 21.6 c 0,0.7 0.6,1.3 1.3,1.3 h 8.2 c 0.7,0 1.3,-0.6 1.3,-1.3 V 47 H 20 c 1.4,0 2.7,0.3 4,0.8 l 1.6,0.7 c 1.5,0.6 3.1,1 4.6,1 1.7,0 3.4,-0.4 5,-1.2 5.9,-2.9 16.2,-7.9 19.9,-9.7 1.5,-0.7 2.2,-2.3 1.6,-3.7 z M 15.3,49.3 H 9.6 V 30.2 h 5.7 v 2 13.4 z m 38.9,-13 c -3.7,1.8 -14.1,6.8 -19.9,9.7 -2.4,1.2 -5.1,1.2 -7.6,0.1 L 25,45.4 C 23.4,44.7 21.7,44.3 20,44.3 H 17.8 V 33.5 H 20 c 0,0 0,0 0,0 1.8,0 3.5,0.5 5.1,1.4 1.8,1.1 4,1.4 6,0.9 l 6.5,-1.7 c 1.7,-0.4 3.5,0.5 4.1,2.1 l 0.1,0.3 -10.8,4.3 c -0.6,0.3 -1,1 -0.7,1.6 0.2,0.5 0.7,0.8 1.2,0.8 0.2,0 0.3,0 0.5,-0.1 l 12,-4.8 c 0,0 0,0 0,0 0,0 0,0 0,0 0,0 0,0 0.1,0 0,0 0,0 0.1,0 0,0 0,0 0.1,0 0,0 0,0 0,0 0,0 0,0 0.1,0 0,0 0,0 0,0 0,0 0,0 0.1,0 0,0 0,0 0,0 0,0 0,0 0,0 0,0 0,0 0,0 0,0 0,0 0,-0.1 0,0 0,0 0,0 0,0 0,0 0,-0.1 0,0 0,0 0,0 0,0 0,0 0,-0.1 0,0 0,0 0,-0.1 0,0 0,0 0,-0.1 0,0 0,0 0,-0.1 0,0 0,0 0,-0.1 0,0 0,0 0,-0.1 0,0 0,0 0,-0.1 0,0 0,0 0,-0.1 0,0 0,0 0,-0.1 0,0 0,0 0,-0.1 0,0 0,0 0,-0.1 0,0 0,0 0,-0.1 0,0 0,0 0,-0.1 0,0 0,0 0,-0.1 0,0 0,0 0,-0.1 0,0 0,0 0,-0.1 0,0 0,0 0,-0.1 0,0 0,0 0,0 0,0 0,0 0,0 0,0 0,0 0,0 L 44,35.1 49.3,33.3 c 2,-0.7 4.1,0.3 4.9,2.2 v 0.1 c 0.2,0.4 0.2,0.7 0,0.7 z"
         id="path8"
         inkscape:connector-curvature="0"
         style="fill:#999999;fill-opacity:1" /></g></g></svg>