<svg xmlns="http://www.w3.org/2000/svg" viewBox="0 0 64 80" x="0px" y="0px"><title>23-payment</title><g data-name="23-payment"><path d="M21,44a3,3,0,0,0,2-.78,3,3,0,1,0,0-4.44A3,3,0,1,0,21,44Zm4-4a1,1,0,1,1-1,1A1,1,0,0,1,25,40Zm-4,0a1,1,0,1,1-1,1A1,1,0,0,1,21,40Z"/><path d="M63.19,34.1,42.19,30a1,1,0,0,0-.82.2L36.65,34H17a3,3,0,0,0-3,3V51a3,3,0,0,0,3,3H41a3,3,0,0,0,2-.76,3.81,3.81,0,0,0,4.73-.53l2-2a3.81,3.81,0,0,0,1-3.71H53.1A4.69,4.69,0,0,0,58,51h5a1,1,0,0,0,1-1V35.09A1,1,0,0,0,63.19,34.1ZM17,36H41a1,1,0,0,1,1,1v2.14a4,4,0,0,0,0,7.72A1,1,0,0,0,42,47v1H16V37A1,1,0,0,1,17,36ZM41,52H17a1,1,0,0,1-1-1V50H42v1A1,1,0,0,1,41,52Zm3-.51A3,3,0,0,0,44,51V48.41L46.59,51l-.29.29A1.83,1.83,0,0,1,44,51.49Zm4.34-2.2-.29.29L45.41,47h3.12A1.83,1.83,0,0,1,48.29,49.29ZM62,49H58a2.85,2.85,0,0,1-3-3,1,1,0,0,0-1-1H43a2,2,0,0,1,0-4H54a1,1,0,0,0,0-2H44V37a3,3,0,0,0-3-3H39.85l2.41-1.93L62,35.91Z"/><path d="M47,55a1,1,0,0,0-1,1v3a3,3,0,0,1-3,3H5a3,3,0,0,1-3-3V16H13a3,3,0,0,0,3-3V2H43a3,3,0,0,1,3,3V27a1,1,0,0,0,2,0V5a5,5,0,0,0-5-5H15a1,1,0,0,0-.71.29l-14,14A1,1,0,0,0,0,15V59a5,5,0,0,0,5,5H43a5,5,0,0,0,5-5V56A1,1,0,0,0,47,55ZM13,14H3.41L14,3.41V13A1,1,0,0,1,13,14Z"/><path d="M5,54a1,1,0,0,0-1,1v2a3,3,0,0,0,3,3H9a1,1,0,0,0,0-2H7a1,1,0,0,1-1-1V55A1,1,0,0,0,5,54Z"/><path d="M12,59a1,1,0,0,0,1,1h2a1,1,0,0,0,0-2H13A1,1,0,0,0,12,59Z"/><path d="M30,11h2a1,1,0,0,1,1,1,1,1,0,0,0,2,0,3,3,0,0,0-3-3V8a1,1,0,0,0-2,0V9a3,3,0,0,0,0,6h2a1,1,0,0,1,0,2H30a1,1,0,0,1-1-1,1,1,0,0,0-2,0,3,3,0,0,0,3,3v1a1,1,0,0,0,2,0V19a3,3,0,0,0,0-6H30a1,1,0,0,1,0-2Z"/><path d="M41,14A10,10,0,1,0,31,24,10,10,0,0,0,41,14ZM31,22a8,8,0,1,1,8-8A8,8,0,0,1,31,22Z"/><path d="M30,27v4a1,1,0,0,0,2,0V27a1,1,0,0,0-2,0Z"/><path d="M24,26v4a1,1,0,0,0,2,0V26a1,1,0,0,0-2,0Z"/><path d="M36,26v4a1,1,0,0,0,2,0V26a1,1,0,0,0-2,0Z"/></g><text x="0" y="79" fill="#000000" font-size="5px" font-weight="bold" font-family="'Helvetica Neue', Helvetica, Arial-Unicode, Arial, Sans-serif">Created by libertetstudio</text><text x="0" y="84" fill="#000000" font-size="5px" font-weight="bold" font-family="'Helvetica Neue', Helvetica, Arial-Unicode, Arial, Sans-serif">from the Noun Project</text></svg>