<?xml version="1.0" encoding="UTF-8" standalone="no"?>
<svg
   xmlns:dc="http://purl.org/dc/elements/1.1/"
   xmlns:cc="http://creativecommons.org/ns#"
   xmlns:rdf="http://www.w3.org/1999/02/22-rdf-syntax-ns#"
   xmlns:svg="http://www.w3.org/2000/svg"
   xmlns="http://www.w3.org/2000/svg"
   xmlns:sodipodi="http://sodipodi.sourceforge.net/DTD/sodipodi-0.dtd"
   xmlns:inkscape="http://www.inkscape.org/namespaces/inkscape"
   viewBox="0 0 48 60"
   x="0px"
   y="0px"
   version="1.1"
   id="svg20"
   sodipodi:docname="noun_ATM_1791339.svg"
   inkscape:version="0.92.3 (2405546, 2018-03-11)">
  <metadata
     id="metadata26">
    <rdf:RDF>
      <cc:Work
         rdf:about="">
        <dc:format>image/svg+xml</dc:format>
        <dc:type
           rdf:resource="http://purl.org/dc/dcmitype/StillImage" />
      </cc:Work>
    </rdf:RDF>
  </metadata>
  <defs
     id="defs24" />
  <sodipodi:namedview
     pagecolor="#ffffff"
     bordercolor="#666666"
     borderopacity="1"
     objecttolerance="10"
     gridtolerance="10"
     guidetolerance="10"
     inkscape:pageopacity="0"
     inkscape:pageshadow="2"
     inkscape:window-width="1024"
     inkscape:window-height="729"
     id="namedview22"
     showgrid="false"
     inkscape:zoom="3.9333333"
     inkscape:cx="3.4902761"
     inkscape:cy="29.491525"
     inkscape:window-x="1366"
     inkscape:window-y="0"
     inkscape:window-maximized="1"
     inkscape:current-layer="svg20" />
  <title
     id="title2">27-atm</title>
  <g
     data-name="27-atm"
     id="g14"
     transform="translate(0,6)"
     style="fill:#999999;fill-opacity:1">
    <path
       d="M 29,46 H 3 A 1,1 0 0 1 2,45 V 26 h 13 a 1,1 0 0 0 0,-2 H 7 V 10 h 16 v 9 a 1,1 0 0 0 2,0 v -1 h 3 v 1 a 1,1 0 0 0 2,0 V 3 A 3,3 0 0 0 27,0 H 3 A 3,3 0 0 0 0,3 v 42 a 3,3 0 0 0 3,3 h 26 a 1,1 0 0 0 0,-2 z M 5,20 H 2 V 18 H 5 Z M 5,16 H 2 v -2 h 3 z m -3,8 v -2 h 3 v 2 z M 5,12 H 2 v -2 h 3 z m 23,-2 v 2 h -3 v -2 z m -3,6 v -2 h 3 v 2 z M 3,2 h 24 a 1,1 0 0 1 1,1 V 8 H 2 V 3 A 1,1 0 0 1 3,2 Z"
       id="path4"
       inkscape:connector-curvature="0"
       style="fill:#999999;fill-opacity:1" />
    <path
       d="M 7,6 H 23 A 1,1 0 0 0 23,4 H 7 a 1,1 0 0 0 0,2 z"
       id="path6"
       inkscape:connector-curvature="0"
       style="fill:#999999;fill-opacity:1" />
    <path
       d="m 47,35 a 1,1 0 0 0 1,-1 V 25 A 3,3 0 0 0 45,22 H 21 a 3,3 0 0 0 -3,3 v 16 a 3,3 0 0 0 3,3 h 24 a 3,3 0 0 0 3,-3 V 38 A 1,1 0 0 0 47,37 H 23 a 1,1 0 0 0 0,2 h 23 v 2 a 1,1 0 0 1 -1,1 H 21 A 1,1 0 0 1 20,41 V 25 a 1,1 0 0 1 1,-1 h 24 a 1,1 0 0 1 1,1 v 9 a 1,1 0 0 0 1,1 z"
       id="path8"
       inkscape:connector-curvature="0"
       style="fill:#999999;fill-opacity:1" />
    <path
       d="m 27,26.78 a 3,3 0 1 0 0,4.44 3,3 0 1 0 0,-4.44 z M 25,30 a 1,1 0 1 1 1,-1 1,1 0 0 1 -1,1 z m 5,-1 a 1,1 0 1 1 -1,-1 1,1 0 0 1 1,1 z"
       id="path10"
       inkscape:connector-curvature="0"
       style="fill:#999999;fill-opacity:1" />
    <path
       d="m 35,28 a 1,1 0 0 0 0,2 h 8 a 1,1 0 0 0 0,-2 z"
       id="path12"
       inkscape:connector-curvature="0"
       style="fill:#999999;fill-opacity:1" />
  </g>
  <path
     style="fill:#999999;stroke-width:0.25423729;fill-opacity:1"
     d="m 19.566755,49.432529 c -1.421152,-0.771109 -1.46506,-1.083017 -1.46506,-10.407105 0,-7.081304 0.06497,-8.667841 0.379903,-9.276853 0.821299,-1.588217 0.249211,-1.528232 14.574971,-1.528232 h 13.062075 l 0.864406,0.864407 0.864407,0.864407 v 5.206158 c 0,4.439998 -0.05926,5.255338 -0.402666,5.540342 -0.291844,0.242208 -0.519254,0.260793 -0.826271,0.06753 C 46.253773,40.533576 46.1754,39.776136 46.054469,35.311822 45.977222,32.460235 45.891417,30.098517 45.863791,30.06356 45.836163,30.028602 40.116101,30 33.152542,30 23.644067,30 20.41556,30.07597 20.18644,30.305085 c -0.436801,0.436802 -0.436801,17.003876 0,17.440678 0.439607,0.439607 25.136665,0.439607 25.576271,0 0.167797,-0.167797 0.305085,-0.854237 0.305085,-1.525424 V 45 H 34.548592 C 22.36359,45 21.992054,44.96505 22.208886,43.839128 c 0.0921,-0.478248 0.441603,-0.49167 12.80307,-0.49167 h 12.708383 v 2.500226 2.500227 L 46.890056,49.08921 46.059775,49.830509 33.161243,49.82033 C 22.24814,49.811718 20.155585,49.752024 19.566755,49.432529 Z"
     id="path4521"
     inkscape:connector-curvature="0" />
  <path
     style="fill:#999999;stroke-width:0.25423729;fill-opacity:1"
     d="m 34.243687,35.332445 c -0.358057,-1.128137 0.14894,-1.264921 4.673036,-1.260755 2.325039,0.0021 4.380362,0.100884 4.567385,0.21943 0.187022,0.118545 0.301429,0.488615 0.254237,0.822378 l -0.0858,0.606841 -4.620901,0.06922 c -4.480171,0.06711 -4.625989,0.05319 -4.787954,-0.457116 z"
     id="path4523"
     inkscape:connector-curvature="0" />
  <path
     style="fill:#999999;stroke-width:0.25423729;fill-opacity:1"
     d="m 23.520463,37.385536 c -0.973331,-0.593483 -1.350972,-1.235485 -1.350972,-2.296701 0,-1.184372 0.624963,-2.168922 1.700839,-2.679459 0.885224,-0.420066 1.045553,-0.425224 2.045098,-0.06579 0.974759,0.350521 1.194384,0.350521 2.169144,0 0.999544,-0.359435 1.159873,-0.354277 2.045097,0.06579 2.207835,1.047687 2.307506,3.988077 0.172608,5.092076 -0.920808,0.476169 -1.706452,0.479808 -2.603125,0.01206 -0.607289,-0.316792 -0.791016,-0.316792 -1.398305,0 -0.955162,0.49826 -1.818509,0.458521 -2.780384,-0.127976 z m 2.157503,-1.588926 c 0.862956,-0.862956 -0.151878,-2.300636 -1.220339,-1.728813 -0.89737,0.480257 -0.508959,2.033898 0.508474,2.033898 0.223729,0 0.544068,-0.137288 0.711865,-0.305085 z m 4.067796,0 c 0.543396,-0.543395 0.358493,-1.461143 -0.360374,-1.78868 -0.585251,-0.266659 -0.72161,-0.233861 -1.131321,0.272111 -0.891197,1.100582 0.496672,2.511593 1.491695,1.516569 z"
     id="path4525"
     inkscape:connector-curvature="0" />
</svg>
