<?xml version="1.0" encoding="UTF-8" standalone="no"?>
<svg
   xmlns:dc="http://purl.org/dc/elements/1.1/"
   xmlns:cc="http://creativecommons.org/ns#"
   xmlns:rdf="http://www.w3.org/1999/02/22-rdf-syntax-ns#"
   xmlns:svg="http://www.w3.org/2000/svg"
   xmlns="http://www.w3.org/2000/svg"
   xmlns:sodipodi="http://sodipodi.sourceforge.net/DTD/sodipodi-0.dtd"
   xmlns:inkscape="http://www.inkscape.org/namespaces/inkscape"
   viewBox="0 0 38.00119 60.000359"
   x="0px"
   y="0px"
   version="1.1"
   id="svg12"
   sodipodi:docname="noun_hand_payment_2199577.svg"
   width="38.00119"
   height="60.000359"
   inkscape:version="0.92.3 (2405546, 2018-03-11)">
  <metadata
     id="metadata18">
    <rdf:RDF>
      <cc:Work
         rdf:about="">
        <dc:format>image/svg+xml</dc:format>
        <dc:type
           rdf:resource="http://purl.org/dc/dcmitype/StillImage" />
      </cc:Work>
    </rdf:RDF>
  </metadata>
  <defs
     id="defs16" />
  <sodipodi:namedview
     pagecolor="#ffffff"
     bordercolor="#666666"
     borderopacity="1"
     objecttolerance="10"
     gridtolerance="10"
     guidetolerance="10"
     inkscape:pageopacity="0"
     inkscape:pageshadow="2"
     inkscape:window-width="1366"
     inkscape:window-height="689"
     id="namedview14"
     showgrid="false"
     inkscape:zoom="2.95"
     inkscape:cx="18.001191"
     inkscape:cy="-5.1182851"
     inkscape:window-x="0"
     inkscape:window-y="0"
     inkscape:window-maximized="1"
     inkscape:current-layer="svg12" />
  <title
     id="title2">payment, money, pay, hand, dollar, </title>
  <g
     id="g6"
     transform="translate(-13.998809,-2)"
     style="fill:#999999;fill-opacity:1">
    <path
       d="M 24,3.42 V 18.64 L 15.1,29.47 A 2.94,2.94 0 0 0 14,31.75 v 22 A 2.84,2.84 0 0 0 14.25,55 l 2.83,6.45 A 1,1 0 0 0 18,62 1.14,1.14 0 0 0 18.4,61.92 1,1 0 0 0 18.92,60.6 L 16.08,54.14 A 1,1 0 0 1 16,53.77 v -22 a 1,1 0 0 1 0.39,-0.75 L 24,21.78 V 38 l -5.58,8.6 a 1.0013116,1.0013116 0 0 0 1.68,1.09 L 31.4,30.22 a 2.53,2.53 0 0 1 1.6,-1.09 2.49,2.49 0 0 1 1.88,0.35 2.43,2.43 0 0 1 1.08,1.58 2.49,2.49 0 0 1 -0.34,1.88 l -6.96,10.69 1.06,0.48 a 5.62,5.62 0 0 1 0.75,0.41 6.35,6.35 0 0 1 2.79,4.69 9.46,9.46 0 0 1 -1.54,6.25 1,1 0 0 0 0.3,1.38 A 1,1 0 0 0 32.56,57 1,1 0 0 0 33.4,56.54 11.56,11.56 0 0 0 35.32,50 h 7 a 9.6,9.6 0 0 1 -0.21,7.55 8.21,8.21 0 0 1 -2.19,2.67 1,1 0 0 0 -0.14,1.41 1,1 0 0 0 0.78,0.37 1,1 0 0 0 0.63,-0.22 10.26,10.26 0 0 0 2.7,-3.33 11.38,11.38 0 0 0 0.54,-8.45 h 6.15 A 1.43,1.43 0 0 0 52,48.58 V 3.42 A 1.43,1.43 0 0 0 50.58,2 H 25.42 A 1.43,1.43 0 0 0 24,3.42 Z M 37.27,34 A 4.45,4.45 0 0 0 37.9,30.61 4.52,4.52 0 0 0 37.08,28.85 2.66,2.66 0 0 0 39,26.33 v -1.66 a 0.67,0.67 0 1 1 1.33,0 v 1.66 A 0.67,0.67 0 0 1 39.67,27 v 2 a 2.67,2.67 0 0 0 2.66,-2.67 H 44 v -2 H 42.3 A 2.66,2.66 0 0 0 37,24.67 v 1.66 a 0.67,0.67 0 1 1 -1.33,0 V 24.67 A 0.67,0.67 0 0 1 36.33,24 V 22 A 2.66,2.66 0 0 0 33.7,24.33 H 32 v 2 h 1.67 A 2.5,2.5 0 0 0 33.8,27.11 4.47,4.47 0 0 0 30,28.79 V 11.9 A 5,5 0 0 0 33.9,8 h 8.2 A 5,5 0 0 0 46,11.9 V 40.1 A 5,5 0 0 0 42.1,44 H 33 A 7.56,7.56 0 0 0 31.59,42.83 Z M 50,4 V 48 H 35.07 A 8.79,8.79 0 0 0 34.36,46 H 44 v -1 a 3,3 0 0 1 3,-3 h 1 V 10 H 47 A 3,3 0 0 1 44,7 V 6 H 32 v 1 a 3,3 0 0 1 -3,3 h -1 v 21.79 l -2,3.08 V 4 Z"
       id="path4"
       inkscape:connector-curvature="0"
       style="fill:#999999;fill-opacity:1" />
  </g>
</svg>
