<svg xmlns="http://www.w3.org/2000/svg" viewBox="0 0 48 60" x="0px" y="0px"><title>27-atm</title><g data-name="27-atm"><path d="M29,46H3a1,1,0,0,1-1-1V26H15a1,1,0,0,0,0-2H7V10H23v9a1,1,0,0,0,2,0V18h3v1a1,1,0,0,0,2,0V3a3,3,0,0,0-3-3H3A3,3,0,0,0,0,3V45a3,3,0,0,0,3,3H29a1,1,0,0,0,0-2ZM5,20H2V18H5Zm0-4H2V14H5ZM2,24V22H5v2ZM5,12H2V10H5Zm23-2v2H25V10Zm-3,6V14h3v2ZM3,2H27a1,1,0,0,1,1,1V8H2V3A1,1,0,0,1,3,2Z"/><path d="M7,6H23a1,1,0,0,0,0-2H7A1,1,0,0,0,7,6Z"/><path d="M47,35a1,1,0,0,0,1-1V25a3,3,0,0,0-3-3H21a3,3,0,0,0-3,3V41a3,3,0,0,0,3,3H45a3,3,0,0,0,3-3V38a1,1,0,0,0-1-1H23a1,1,0,0,0,0,2H46v2a1,1,0,0,1-1,1H21a1,1,0,0,1-1-1V25a1,1,0,0,1,1-1H45a1,1,0,0,1,1,1v9A1,1,0,0,0,47,35Z"/><path d="M27,26.78a3,3,0,1,0,0,4.44,3,3,0,1,0,0-4.44ZM25,30a1,1,0,1,1,1-1A1,1,0,0,1,25,30Zm5-1a1,1,0,1,1-1-1A1,1,0,0,1,30,29Z"/><path d="M35,28a1,1,0,0,0,0,2h8a1,1,0,0,0,0-2Z"/></g><text x="0" y="63" fill="#000000" font-size="5px" font-weight="bold" font-family="'Helvetica Neue', Helvetica, Arial-Unicode, Arial, Sans-serif">Created by libertetstudio</text><text x="0" y="68" fill="#000000" font-size="5px" font-weight="bold" font-family="'Helvetica Neue', Helvetica, Arial-Unicode, Arial, Sans-serif">from the Noun Project</text></svg>