<?xml version="1.0" encoding="utf-8"?><svg version="1.1" id="Layer_1" xmlns="http://www.w3.org/2000/svg" xmlns:xlink="http://www.w3.org/1999/xlink" x="0px" y="0px" viewBox="0 0 111.57 122.88" style="enable-background:new 0 0 111.57 122.88" xml:space="preserve"><g><path d="M54.05,49.15v1.36h-0.02c0,6.9-2.81,13.15-7.32,17.67c-3.81,3.81-8.87,6.41-14.5,7.12c0,14.03-0.2,28.42,15.96,34.95 c3.55,1.43,7.38,2.17,11.18,2.18l0.02,0c3.79,0.01,7.58-0.68,11.08-2.1c8.62-3.5,15.32-11.65,15.32-24.69 c0-16.12,0.02-23.54,0.02-39.68v-0.2c-8.82-2.31-15.33-9.44-15.33-19.89c0-10.45,9.2-20.55,20.55-20.55 c11.35,0,20.55,10.11,20.55,20.55c0,10.45-6.5,17.57-15.32,19.88v0.2c0,16.14,0.02,23.56,0.02,39.68c0,18.02-9.56,29.4-21.88,34.41 c-4.73,1.92-9.88,2.86-15.06,2.84c-5.16-0.02-10.31-1-15.06-2.92c-20.59-8.32-22.56-26.19-22.56-44.69 c-5.56-0.75-10.55-3.32-14.32-7.1C2.88,63.65,0.07,57.4,0.07,50.51H0.05v-1.38H0V0h17.72v10.5H10.5v18.97h0.05v21.04h-0.02 c0,3.97,1.64,7.59,4.29,10.24c2.64,2.65,6.27,4.29,10.24,4.29v-0.02h3.99v0.02c3.97,0,7.6-1.64,10.24-4.29 c2.64-2.64,4.29-6.27,4.29-10.24h-0.02V29.46h0.02v-0.13l0-0.21h0.01v-18.6h-7.22V0.03h17.71v49.12H54.05L54.05,49.15z"/></g></svg>