<svg xmlns="http://www.w3.org/2000/svg" viewBox="0 0 100 125" x="0px" y="0px"><title>glasses</title><g data-name="Calque 2"><path d="M33.5,58.61c-4.88,0-8.55-3.25-9.59-8.48-.67-3.44-.53-5.62.46-7a4,4,0,0,1,2.69-1.62A50.61,50.61,0,0,1,33.73,41c6.21-.15,10.06.17,12.11,3.23,1.54,2.31,1.13,5.7-1.28,10.36-1.82,3.54-5.94,3.93-10.73,4.06Zm2.2-15.37c-.61,0-1.25,0-1.93,0a49.59,49.59,0,0,0-6.33.49,1.62,1.62,0,0,0-1.17.66c-.58.83-.61,2.61-.09,5.27.82,4.17,3.6,6.64,7.38,6.62h.14c5-.14,7.67-.61,8.81-2.82,2-3.79,2.43-6.49,1.41-8S40.66,43.24,35.7,43.24Z"/><path d="M66.5,59.08h-.35c-4.77-.13-8.88-.53-10.71-4.06C53,50.35,52.61,47,54.16,44.65c1.83-2.73,5.1-3.26,10.14-3.26l2,0a50.72,50.72,0,0,1,6.65.52,3.91,3.91,0,0,1,2.69,1.62c1,1.43,1.13,3.6.45,7C75.05,55.83,71.38,59.08,66.5,59.08ZM64.3,43.7c-5,0-7.12.58-8.22,2.24s-.55,4.21,1.41,8c1.14,2.2,3.84,2.67,8.75,2.81h.26c3.77,0,6.5-2.48,7.32-6.62.52-2.66.49-4.44-.09-5.28a1.59,1.59,0,0,0-1.17-.65,49.49,49.49,0,0,0-6.31-.49Z"/><path d="M45.6,50.06a1.15,1.15,0,0,1-.91-1.86c1.55-2,3.32-3.05,5.24-3.08H50a7.64,7.64,0,0,1,5.27,2.68,1.15,1.15,0,0,1-1.78,1.47A5.4,5.4,0,0,0,50,47.43a4.65,4.65,0,0,0-3.45,2.18A1.16,1.16,0,0,1,45.6,50.06Z"/><path d="M39.3,54a1.16,1.16,0,0,1-1.15-1.13s-.14-3.42-2.23-3.71c-3.05-.43-11-1.31-11.09-1.32a1.16,1.16,0,0,1,.25-2.3c.08,0,8.07.9,11.16,1.33s4.16,3.94,4.22,5.94A1.16,1.16,0,0,1,39.34,54Z"/><path d="M60.52,54.47h0a1.16,1.16,0,0,1-1.12-1.19c.05-2,1-5.5,4.22-6S74.66,46,74.74,46A1.15,1.15,0,0,1,75,48.31c-.09,0-8,.89-11.09,1.31-2.09.29-2.23,3.69-2.24,3.73A1.15,1.15,0,0,1,60.52,54.47Z"/></g><text x="0" y="115" fill="#000000" font-size="5px" font-weight="bold" font-family="'Helvetica Neue', Helvetica, Arial-Unicode, Arial, Sans-serif">Created by lipi</text><text x="0" y="120" fill="#000000" font-size="5px" font-weight="bold" font-family="'Helvetica Neue', Helvetica, Arial-Unicode, Arial, Sans-serif">from the Noun Project</text></svg>