<svg xmlns="http://www.w3.org/2000/svg" xmlns:xlink="http://www.w3.org/1999/xlink" version="1.1" x="0px" y="0px" viewBox="-55 147 500 625" style="enable-background:new -55 147 500 500;" xml:space="preserve"><path d="M335.4,567.3V342.8c0-35-48.5-50.9-93.6-50.9c-21.8,0-44.4,3.7-62,11.6v-72.1v-0.1c-0.2-38.1-25.4-65.9-47-78.2  c-6.7-3.8-12.4-5.8-16.9-6c-0.1,0-0.2,0-0.3,0s-0.2,0-0.3,0c-2.2,0-4.1,0.5-5.8,1.4c-0.1,0.1-0.2,0.1-0.3,0.2  c-5.5,2.8-10.8,9.5-16.7,20.7c-11.1,21.2-16.9,46-16.9,71.8v75c-2.8,1.1-4.8,3.8-4.8,7v72.9c-6.9,4.6-11.4,12.3-11.4,21.1v7.9  C51,427.7,45,435.4,45,444.6v164.3c0,26.5,41.5,38.3,82.7,38.3c7.9,0,15.8-0.4,23.5-1.3c4.1,1.2,8.6,1.3,12.6,1.3h154.8  c12.9,0,26.3-1.9,26.3-21V585C345,577.5,341.2,571.1,335.4,567.3z M320.2,342.8v221.1H210.4V444.4c0-9.1-6.1-16.8-14.4-19.5V417  c0-8.8-4.5-16.6-11.4-21.1V323c0-1.7-0.6-3.3-1.6-4.5c15.3-7.6,37.4-11.6,58.8-11.6C279.8,306.9,320.2,319.5,320.2,342.8z   M142.8,179.8c8.3,8.5,17.9,21.9,20.9,40.1c-28.9-15.1-42-44.8-44.1-56.8C124.9,165.4,133.9,170.7,142.8,179.8z M90.8,241.1  c0-23.3,5.3-45.8,15.2-64.9c0.3-0.6,0.6-1.1,0.8-1.6c6.4,19.5,24.3,48.8,57.7,62.4v78.6H90.7v-74.5H90.8z M86,330.6h83.4v61.1H86  V330.6z M74.6,417.1c0-5.7,4.7-10.4,10.5-10.4h85.2c5.8,0,10.5,4.7,10.5,10.4v6.9H74.6V417.1z M60.2,608.7V444.4  c0-3,2.4-5.4,5.4-5.4h124.2c3,0,5.4,2.4,5.4,5.4v164.3c0,12.8-30.3,23.3-67.5,23.3S60.2,621.5,60.2,608.7z M329.8,626  c0,3.3-2.7,6-6,6h-128c9.1-5.9,14.6-13.6,14.6-23.3v-29.8h113.4c3.3,0,6,2.7,6,6V626z"/><text x="-55" y="662" fill="#000000" font-size="5px" font-weight="bold" font-family="'Helvetica Neue', Helvetica, Arial-Unicode, Arial, Sans-serif">Created by Serhii Smirnov</text><text x="-55" y="667" fill="#000000" font-size="5px" font-weight="bold" font-family="'Helvetica Neue', Helvetica, Arial-Unicode, Arial, Sans-serif">from the Noun Project</text></svg>