<?xml version="1.0" encoding="UTF-8" standalone="no"?>
<svg
   xmlns:dc="http://purl.org/dc/elements/1.1/"
   xmlns:cc="http://creativecommons.org/ns#"
   xmlns:rdf="http://www.w3.org/1999/02/22-rdf-syntax-ns#"
   xmlns:svg="http://www.w3.org/2000/svg"
   xmlns="http://www.w3.org/2000/svg"
   xmlns:sodipodi="http://sodipodi.sourceforge.net/DTD/sodipodi-0.dtd"
   xmlns:inkscape="http://www.inkscape.org/namespaces/inkscape"
   version="1.1"
   x="0px"
   y="0px"
   viewBox="0 0 60.24461 75.713997"
   enable-background="new 0 0 100 100"
   xml:space="preserve"
   id="svg8"
   sodipodi:docname="noun_Piggy Bank_435075.svg"
   width="60.24461"
   height="75.713997"
   inkscape:version="0.92.3 (2405546, 2018-03-11)"><metadata
     id="metadata14"><rdf:RDF><cc:Work
         rdf:about=""><dc:format>image/svg+xml</dc:format><dc:type
           rdf:resource="http://purl.org/dc/dcmitype/StillImage" /></cc:Work></rdf:RDF></metadata><defs
     id="defs12" /><sodipodi:namedview
     pagecolor="#ffffff"
     bordercolor="#666666"
     borderopacity="1"
     objecttolerance="10"
     gridtolerance="10"
     guidetolerance="10"
     inkscape:pageopacity="0"
     inkscape:pageshadow="2"
     inkscape:window-width="1366"
     inkscape:window-height="689"
     id="namedview10"
     showgrid="false"
     inkscape:zoom="1.888"
     inkscape:cx="30.463"
     inkscape:cy="25.831"
     inkscape:window-x="0"
     inkscape:window-y="0"
     inkscape:window-maximized="1"
     inkscape:current-layer="svg8" /><path
     d="m 26.622,16.882 c -0.545,0 -0.969,-0.175 -1.265,-0.524 -0.298,-0.351 -0.444,-0.86 -0.444,-1.533 H 21.94 c 0,1.217 0.343,2.2 1.029,2.943 0.683,0.743 1.666,1.184 2.947,1.317 v 1.424 h 1.4 v -1.413 c 1.1,-0.105 1.968,-0.475 2.604,-1.111 0.638,-0.634 0.959,-1.453 0.959,-2.459 0,-0.596 -0.101,-1.104 -0.302,-1.522 -0.198,-0.425 -0.476,-0.794 -0.827,-1.111 -0.353,-0.317 -0.771,-0.601 -1.258,-0.85 -0.482,-0.252 -0.998,-0.491 -1.546,-0.723 -0.545,-0.234 -0.941,-0.478 -1.19,-0.732 -0.245,-0.256 -0.37,-0.602 -0.37,-1.036 0,-0.43 0.107,-0.767 0.323,-1.01 0.213,-0.24 0.514,-0.364 0.904,-0.364 0.433,0 0.768,0.163 1.004,0.493 0.234,0.329 0.353,0.798 0.353,1.41 h 2.979 C 30.949,8.964 30.642,8.043 30.026,7.317 29.413,6.592 28.567,6.148 27.493,5.99 V 4.468 H 26.09 v 1.485 c -1.113,0.105 -2.007,0.479 -2.676,1.123 -0.671,0.644 -1.007,1.466 -1.007,2.456 0,0.594 0.093,1.099 0.28,1.516 0.19,0.418 0.461,0.784 0.811,1.103 0.354,0.318 0.776,0.597 1.263,0.836 0.488,0.241 1.021,0.479 1.594,0.716 0.579,0.232 0.981,0.485 1.209,0.747 0.229,0.266 0.344,0.632 0.344,1.094 0,0.42 -0.115,0.749 -0.344,0.982 -0.227,0.237 -0.542,0.356 -0.942,0.356 z m 0.074,7.918 c 6.837,0 12.399,-5.563 12.399,-12.399 C 39.095,5.563 33.532,0 26.696,0 c -6.838,0 -12.4,5.563 -12.4,12.401 0,6.836 5.563,12.399 12.4,12.399 z m 0,-21.801 c 5.183,0 9.399,4.218 9.399,9.401 0,5.183 -4.217,9.399 -9.399,9.399 -5.184,0 -9.4,-4.217 -9.4,-9.399 0,-5.183 4.217,-9.401 9.4,-9.401 z m 7.037,30.458 c -2.148,-0.524 -4.432,-0.76 -6.785,-0.701 -2.354,0.059 -4.624,0.407 -6.744,1.038 -0.794,0.235 -1.246,1.071 -1.01,1.865 0.193,0.651 0.79,1.072 1.437,1.072 0.142,0 0.286,-0.02 0.429,-0.063 1.866,-0.555 3.872,-0.862 5.964,-0.913 2.082,-0.062 4.108,0.154 5.999,0.615 0.808,0.198 1.617,-0.297 1.813,-1.102 0.194,-0.803 -0.299,-1.614 -1.103,-1.811 z m 24.785,11.03 c -0.926,-0.763 -2.105,-0.866 -3.137,-0.866 l -1.02,0.012 c -0.732,0 -0.935,-0.075 -0.974,-0.097 -0.549,-0.475 -0.896,-1.244 -1.333,-2.218 -0.73,-1.622 -1.709,-3.797 -4.29,-6.071 0.36,-2.003 1.277,-3.648 2.907,-5.255 0.38,-0.374 0.532,-0.921 0.401,-1.438 -0.131,-0.516 -0.526,-0.924 -1.038,-1.072 -4.783,-1.379 -9.097,-0.793 -12.167,1.631 -3.232,-1.161 -6.663,-1.749 -10.213,-1.749 -8.875,0 -16.966,3.692 -21.833,9.919 C 2.608,37.302 0,39.922 0,43.139 c 0,1.521 0.584,2.948 1.627,4.031 -0.1,0.787 -0.149,1.572 -0.149,2.343 0,5.725 2.54,11.108 7.17,15.236 -0.097,2.384 -0.101,7.469 1.463,9.403 1.098,1.357 3.389,1.561 4.656,1.561 0.803,0 3.526,-0.104 4.865,-1.443 0.71,-0.709 1.102,-2.08 1.317,-3.345 3.307,0.74 6.768,0.929 10.213,0.537 0.241,0.964 0.606,2.073 1.105,2.69 1.098,1.358 3.409,1.562 4.689,1.562 1.019,0 3.529,-0.141 4.833,-1.444 1.367,-1.369 1.568,-4.843 1.554,-6.972 2.098,-1.225 3.801,-2.883 4.622,-3.752 6.235,-0.21 7.685,-3.313 7.833,-3.679 0.151,-0.369 0.148,-0.783 -0.007,-1.15 -0.155,-0.368 -0.451,-0.658 -0.821,-0.808 -0.516,-0.207 -0.972,-0.544 -1.313,-0.939 4.163,-0.184 5.082,-1.319 5.401,-1.714 1.684,-2.078 1.638,-8.974 -0.54,-10.769 z m -1.775,8.864 c -0.27,0.249 -1.669,0.645 -4.279,0.645 -0.51,0 -0.85,-0.016 -0.866,-0.017 -0.412,-0.012 -0.812,0.129 -1.108,0.412 -0.296,0.283 -0.466,0.676 -0.466,1.086 0,1.514 0.771,3.018 2.006,4.096 -0.834,0.484 -2.287,0.984 -4.735,0.984 -0.434,0 -0.854,0.196 -1.139,0.523 -0.237,0.272 -2.397,2.701 -4.997,3.991 -0.529,0.263 -0.855,0.812 -0.833,1.401 0.095,2.454 -0.222,5.163 -0.656,5.676 -0.197,0.197 -1.194,0.565 -2.711,0.565 -1.404,0 -2.217,-0.318 -2.35,-0.438 -0.214,-0.3 -0.59,-1.61 -0.79,-2.748 -0.128,-0.728 -0.76,-1.241 -1.476,-1.241 -0.079,0 -0.159,0.006 -0.24,0.019 -4.046,0.652 -8.183,0.404 -12.022,-0.697 -0.434,-0.122 -0.899,-0.048 -1.27,0.211 -0.37,0.258 -0.604,0.668 -0.64,1.117 -0.103,1.348 -0.432,2.895 -0.659,3.213 -0.203,0.196 -1.217,0.564 -2.744,0.564 -1.391,0 -2.186,-0.315 -2.323,-0.446 C 11.752,71.41 11.49,67.395 11.68,64.183 11.708,63.709 11.511,63.25 11.147,62.945 6.847,59.337 4.479,54.566 4.479,49.513 4.479,48.64 4.556,47.742 4.708,46.844 4.802,46.294 4.582,45.738 4.139,45.4 3.416,44.849 3.001,44.025 3.001,43.139 c 0,-1.575 1.281,-2.856 2.855,-2.856 0.148,0 0.29,0.027 0.432,0.049 0.561,0.092 1.118,-0.146 1.448,-0.604 4.172,-5.776 11.805,-9.364 19.919,-9.364 3.493,0 6.854,0.629 9.988,1.87 0.61,0.242 1.287,0.05 1.691,-0.435 1.871,-1.696 4.439,-2.354 7.512,-1.94 -1.189,1.678 -1.885,3.497 -2.146,5.579 -0.159,0.564 0.024,1.191 0.507,1.578 2.533,2.028 3.371,3.89 4.11,5.532 0.543,1.207 1.057,2.347 2.106,3.256 0.842,0.728 1.909,0.828 2.937,0.828 l 1.02,-0.012 c 0.67,0 1.083,0.062 1.21,0.164 0.787,0.854 0.888,5.653 0.153,6.567 z"
     id="path2"
     inkscape:connector-curvature="0"
     style="fill:#999999;fill-opacity:1" /></svg>