<?xml version="1.0" encoding="UTF-8" standalone="no"?>
<svg
   xmlns:dc="http://purl.org/dc/elements/1.1/"
   xmlns:cc="http://creativecommons.org/ns#"
   xmlns:rdf="http://www.w3.org/1999/02/22-rdf-syntax-ns#"
   xmlns:svg="http://www.w3.org/2000/svg"
   xmlns="http://www.w3.org/2000/svg"
   xmlns:sodipodi="http://sodipodi.sourceforge.net/DTD/sodipodi-0.dtd"
   xmlns:inkscape="http://www.inkscape.org/namespaces/inkscape"
   version="1.1"
   x="0px"
   y="0px"
   viewBox="0 0 466.43701 512"
   enable-background="new 0 0 512 512"
   xml:space="preserve"
   id="svg12"
   sodipodi:docname="noun_Purse_3021154.svg"
   width="466.43701"
   height="512"
   inkscape:version="0.92.3 (2405546, 2018-03-11)"><metadata
     id="metadata18"><rdf:RDF><cc:Work
         rdf:about=""><dc:format>image/svg+xml</dc:format><dc:type
           rdf:resource="http://purl.org/dc/dcmitype/StillImage" /></cc:Work></rdf:RDF></metadata><defs
     id="defs16" /><sodipodi:namedview
     pagecolor="#ffffff"
     bordercolor="#666666"
     borderopacity="1"
     objecttolerance="10"
     gridtolerance="10"
     guidetolerance="10"
     inkscape:pageopacity="0"
     inkscape:pageshadow="2"
     inkscape:window-width="1366"
     inkscape:window-height="689"
     id="namedview14"
     showgrid="false"
     inkscape:zoom="0.36875"
     inkscape:cx="233.219"
     inkscape:cy="192"
     inkscape:window-x="0"
     inkscape:window-y="0"
     inkscape:window-maximized="1"
     inkscape:current-layer="svg12" /><g
     id="g6"
     transform="translate(-22.781)"
     style="fill:#999999;fill-opacity:1"><path
       d="m 460.109,277.344 h -10.672 v -50.227 l 39.781,-51.914 -92,-70.492 5.969,-14.453 -53.906,-22.289 -46.328,-35.5 -6.141,8.023 1.312,-10.016 L 240.257,22.898 186.336,0.602 180.359,15.055 65.438,0 45.711,150.648 c -13.258,3.906 -22.93,16.164 -22.93,30.688 v 309.32 c 0,11.781 9.547,21.344 21.328,21.344 h 384 c 11.781,0 21.328,-9.562 21.328,-21.344 v -64 h 10.672 c 5.891,0 10.672,-4.766 10.672,-10.656 V 288 c 0,-5.891 -4.781,-10.656 -10.672,-10.656 z M 306.906,62.383 459.312,179.164 444.015,199.125 C 440.109,194.75 434.437,192 428.109,192 H 414.25 c -3.562,-9.898 -2.156,-21.352 4.719,-30.32 L 334.281,96.797 c -6.281,8.227 -15.797,12.539 -25.406,12.539 -6.797,0 -13.641,-2.148 -19.438,-6.602 L 221.031,192 h -13.445 z m 84.578,125.758 c 0.172,1.297 0.391,2.586 0.656,3.859 H 247.906 l 48.172,-62.867 c 4.141,1.016 8.422,1.539 12.797,1.539 8,0 16.031,-1.836 23.219,-5.305 0.875,-0.43 1.766,-0.883 2.625,-1.359 l 57.844,44.32 c -1.594,6.391 -1.969,13.086 -1.079,19.813 z M 164.914,192 204.719,95.734 c 13.758,-0.266 26.516,-5.75 36.016,-14.93 L 259.86,88.71 180.711,192 Z M 197.898,28.469 280,62.414 273.281,71.18 233.25,54.625 c -5.094,12.336 -17.016,19.781 -29.586,19.781 -4.07,0 -8.211,-0.781 -12.211,-2.43 L 141.828,192 H 130.289 Z M 94.078,192 107.812,87.133 c 7.406,-2.148 14.328,-5.891 20.242,-11.039 4.227,-3.688 7.812,-7.977 10.656,-12.711 L 159.265,66.078 107.203,192 Z M 83.82,23.922 l 88.102,11.539 -4.219,10.203 -42.961,-5.625 c -2.109,16.117 -15.867,27.852 -31.688,27.852 -1.391,0 -2.789,-0.094 -4.195,-0.273 L 72.562,192 H 61.805 Z m 344.289,466.734 h -384 v -277.32 h 384 v 64.008 H 321.438 c 0,0 -42.688,51.094 -42.688,74.656 0,23.562 42.688,74.656 42.688,74.656 H 428.11 v 64 z m 21.329,-85.312 H 331.719 c -3.781,-4.875 -8.828,-11.594 -13.844,-19 -16.75,-24.625 -17.734,-33.734 -17.781,-34.344 0.047,-0.609 1.031,-9.719 17.781,-34.344 5.016,-7.406 10.062,-14.125 13.844,-19 h 117.719 z"
       id="path2"
       inkscape:connector-curvature="0"
       style="fill:#999999;fill-opacity:1" /><path
       d="m 364.109,384 c 17.672,0 32,-14.328 32,-32 0,-17.672 -14.328,-32 -32,-32 -17.672,0 -32,14.328 -32,32 0,17.672 14.329,32 32,32 z m 0,-42.656 c 5.891,0 10.672,4.781 10.672,10.656 0,5.875 -4.781,10.656 -10.672,10.656 -5.891,0 -10.672,-4.781 -10.672,-10.656 0,-5.875 4.782,-10.656 10.672,-10.656 z"
       id="path4"
       inkscape:connector-curvature="0"
       style="fill:#999999;fill-opacity:1" /></g></svg>