<?xml version="1.0" encoding="UTF-8" standalone="no"?>
<svg
   xmlns:dc="http://purl.org/dc/elements/1.1/"
   xmlns:cc="http://creativecommons.org/ns#"
   xmlns:rdf="http://www.w3.org/1999/02/22-rdf-syntax-ns#"
   xmlns:svg="http://www.w3.org/2000/svg"
   xmlns="http://www.w3.org/2000/svg"
   xmlns:sodipodi="http://sodipodi.sourceforge.net/DTD/sodipodi-0.dtd"
   xmlns:inkscape="http://www.inkscape.org/namespaces/inkscape"
   version="1.1"
   x="0px"
   y="0px"
   viewBox="-55 147 299.90192 500.10001"
   xml:space="preserve"
   id="svg8"
   sodipodi:docname="noun_lipstick_3111444.svg"
   width="299.90192"
   height="500.10001"
   inkscape:version="0.92.3 (2405546, 2018-03-11)"><metadata
     id="metadata14"><rdf:RDF><cc:Work
         rdf:about=""><dc:format>image/svg+xml</dc:format><dc:type
           rdf:resource="http://purl.org/dc/dcmitype/StillImage" /></cc:Work></rdf:RDF></metadata><defs
     id="defs12" /><sodipodi:namedview
     pagecolor="#ffffff"
     bordercolor="#666666"
     borderopacity="1"
     objecttolerance="10"
     gridtolerance="10"
     guidetolerance="10"
     inkscape:pageopacity="0"
     inkscape:pageshadow="2"
     inkscape:window-width="1366"
     inkscape:window-height="729"
     id="namedview10"
     showgrid="false"
     inkscape:zoom="0.26700352"
     inkscape:cx="-61.690838"
     inkscape:cy="-99.83236"
     inkscape:window-x="0"
     inkscape:window-y="0"
     inkscape:window-maximized="1"
     inkscape:current-layer="svg8" /><path
     d="M 235.4,567.2 V 342.7 c 0,-35 -48.5,-50.9 -93.6,-50.9 -21.8,0 -44.4,3.7 -62,11.6 v -72.1 -0.1 c -0.2,-38.1 -25.4,-65.9 -47,-78.2 -6.7,-3.8 -12.4,-5.8 -16.9,-6 -0.1,0 -0.2,0 -0.3,0 -0.1,0 -0.2,0 -0.3,0 -2.2,0 -4.1,0.5 -5.8,1.4 -0.1,0.1 -0.2,0.1 -0.3,0.2 -5.5,2.8 -10.8,9.5 -16.7,20.7 -11.1,21.2 -16.9,46 -16.9,71.8 v 75 c -2.8,1.1 -4.8,3.8 -4.8,7 V 396 c -6.9,4.6 -11.4,12.3 -11.4,21.1 V 425 C -49,427.6 -55,435.3 -55,444.5 v 164.3 c 0,26.5 41.5,38.3 82.7,38.3 7.9,0 15.8,-0.4 23.5,-1.3 4.1,1.2 8.6,1.3 12.6,1.3 h 154.8 c 12.9,0 26.3,-1.9 26.3,-21 v -41.2 c 0.1,-7.5 -3.7,-13.9 -9.5,-17.7 z M 220.2,342.7 V 563.8 H 110.4 V 444.3 c 0,-9.1 -6.1,-16.8 -14.4,-19.5 v -7.9 c 0,-8.8 -4.5,-16.6 -11.4,-21.1 v -72.9 c 0,-1.7 -0.6,-3.3 -1.6,-4.5 15.3,-7.6 37.4,-11.6 58.8,-11.6 38,0 78.4,12.6 78.4,35.9 z M 42.8,179.7 c 8.3,8.5 17.9,21.9 20.9,40.1 C 34.8,204.7 21.7,175 19.6,163 c 5.3,2.3 14.3,7.6 23.2,16.7 z m -52,61.3 c 0,-23.3 5.3,-45.8 15.2,-64.9 0.3,-0.6 0.6,-1.1 0.8,-1.6 6.4,19.5 24.3,48.8 57.7,62.4 v 78.6 H -9.3 V 241 Z m -4.8,89.5 h 83.4 v 61.1 H -14 Z M -25.4,417 c 0,-5.7 4.7,-10.4 10.5,-10.4 h 85.2 c 5.8,0 10.5,4.7 10.5,10.4 v 6.9 H -25.4 Z M -39.8,608.6 V 444.3 c 0,-3 2.4,-5.4 5.4,-5.4 H 89.8 c 3,0 5.4,2.4 5.4,5.4 v 164.3 c 0,12.8 -30.3,23.3 -67.5,23.3 -37.2,0 -67.5,-10.5 -67.5,-23.3 z m 269.6,17.3 c 0,3.3 -2.7,6 -6,6 h -128 c 9.1,-5.9 14.6,-13.6 14.6,-23.3 v -29.8 h 113.4 c 3.3,0 6,2.7 6,6 z"
     id="path2"
     inkscape:connector-curvature="0" /></svg>