<?xml version="1.0" encoding="UTF-8" standalone="no"?>
<!-- Generator: Adobe Illustrator 24.1.3, SVG Export Plug-In . SVG Version: 6.00 Build 0)  -->

<svg
   xmlns:dc="http://purl.org/dc/elements/1.1/"
   xmlns:cc="http://creativecommons.org/ns#"
   xmlns:rdf="http://www.w3.org/1999/02/22-rdf-syntax-ns#"
   xmlns:svg="http://www.w3.org/2000/svg"
   xmlns="http://www.w3.org/2000/svg"
   xmlns:sodipodi="http://sodipodi.sourceforge.net/DTD/sodipodi-0.dtd"
   xmlns:inkscape="http://www.inkscape.org/namespaces/inkscape"
   version="1.1"
   id="Layer_1"
   x="0px"
   y="0px"
   viewBox="0 0 812.13336 982.17517"
   xml:space="preserve"
   sodipodi:docname="noun_security lock_2734036.svg"
   width="812.13336"
   height="982.17517"
   inkscape:version="0.92.3 (2405546, 2018-03-11)"><metadata
   id="metadata23"><rdf:RDF><cc:Work
       rdf:about=""><dc:format>image/svg+xml</dc:format><dc:type
         rdf:resource="http://purl.org/dc/dcmitype/StillImage" /></cc:Work></rdf:RDF></metadata><defs
   id="defs21" /><sodipodi:namedview
   pagecolor="#ffffff"
   bordercolor="#666666"
   borderopacity="1"
   objecttolerance="10"
   gridtolerance="10"
   guidetolerance="10"
   inkscape:pageopacity="0"
   inkscape:pageshadow="2"
   inkscape:window-width="1366"
   inkscape:window-height="689"
   id="namedview19"
   showgrid="false"
   inkscape:zoom="0.184375"
   inkscape:cx="748.94694"
   inkscape:cy="-167.50468"
   inkscape:window-x="0"
   inkscape:window-y="0"
   inkscape:window-maximized="1"
   inkscape:current-layer="Layer_1" />
<style
   type="text/css"
   id="style2">
	.st0{font-family:'HelveticaNeue-Bold';}
	.st1{font-size:5px;}
	.st2{fill-rule:evenodd;clip-rule:evenodd;}
</style>
<g
   id="g10"
   transform="translate(-109.2,-19.662383)">
	<g
   id="g8">
		<g
   id="g6">
			<path
   d="m 681.6,797.8 c -22.1,12.6 -44.2,25.1 -66.3,37.7 -35.2,20 -70.3,40 -105.5,60 -8,4.6 -16,9.1 -24.1,13.7 16.8,0 33.6,0 50.5,0 -24.4,-14.2 -48.9,-28.4 -73.3,-42.7 -34.9,-20.3 -69.8,-40.6 -104.7,-61 -16.1,-9.4 -32,-19 -46.9,-30.4 3.4,2.6 6.7,5.2 10.1,7.8 -22.2,-17.1 -42,-37 -59.1,-59.1 2.6,3.4 5.2,6.7 7.8,10.1 -16.9,-22 -30.9,-46.1 -41.8,-71.6 1.7,4 3.4,8 5,11.9 -11.2,-26.7 -18.9,-54.7 -22.8,-83.4 0.6,4.4 1.2,8.9 1.8,13.3 -2.8,-21.6 -2.9,-43.1 -2.9,-64.8 0,-27 0,-53.9 0,-80.9 0,-35.4 0,-70.7 0,-106.1 0,-31.8 0,-63.6 0,-95.3 0,-15.6 0.3,-31.3 0,-46.9 0,-0.2 0,-0.5 0,-0.7 -16.7,16.7 -33.3,33.3 -50,50 64.3,0 129.7,-11 190.2,-33.1 32.3,-11.8 64,-26.1 93.8,-43.4 25.3,-14.7 48.8,-31.8 71.8,-49.8 11.9,-9.3 23.7,-18.6 35.6,-27.9 -23.6,0 -47.1,0 -70.7,0 31.7,24.8 62.8,50.7 97.2,71.7 29.5,18 60.8,32.7 92.9,45.2 28.3,11.1 57.6,19.6 87.4,25.6 37.3,7.4 75.6,11.7 113.7,11.7 -16.7,-16.7 -33.3,-33.3 -50,-50 0,12.8 0,25.6 0,38.4 0,30.2 0,60.5 0,90.7 0,35.4 0,70.9 0,106.3 0,28.3 0,56.7 0,85 0,17.3 0.4,34.7 -0.8,52 -0.5,6.7 -1.2,13.3 -2,20 0.6,-4.4 1.2,-8.9 1.8,-13.3 -3.9,28.6 -11.5,56.6 -22.7,83.2 1.7,-4 3.4,-8 5,-11.9 -11,25.9 -25.3,50.3 -42.5,72.6 2.6,-3.4 5.2,-6.7 7.8,-10.1 -16.8,21.6 -36.3,41.1 -57.9,57.9 3.4,-2.6 6.7,-5.2 10.1,-7.8 -12.3,9.2 -25.1,17.8 -38.5,25.4 -10.8,6.2 -19.7,17.9 -23,29.9 -3.3,12 -1.8,27.9 5,38.5 6.9,10.7 17.1,20.1 29.9,23 13.2,3 26.6,1.8 38.5,-5 34.9,-19.9 67.4,-45.9 93.9,-76.1 14.3,-16.3 27.6,-33.8 39.1,-52.2 11.7,-18.8 20.9,-38.6 29.4,-59.1 19.9,-48 26.8,-99.4 26.8,-151 0,-36.6 0,-73.1 0,-109.7 0,-47.7 0,-95.4 0,-143.1 0,-27.5 0.3,-55.1 0,-82.6 0,-0.4 0,-0.8 0,-1.2 0,-27 -22.9,-50 -50,-50 -23.1,0 -46.1,-1.6 -69,-4.6 4.4,0.6 8.9,1.2 13.3,1.8 -45.4,-6.2 -89.8,-18.4 -132,-36.2 4,1.7 8,3.4 11.9,5 -40.8,-17.4 -79.2,-39.8 -114.3,-66.9 3.4,2.6 6.7,5.2 10.1,7.8 C 577.6,55.6 564.1,44.9 550.6,34.3 546.1,29.4 540.7,26 534.5,24 c -6,-3.1 -12.4,-4.6 -19.3,-4.3 -4.4,0.6 -8.9,1.2 -13.3,1.8 -8.5,2.4 -15.8,6.7 -22.1,12.9 -13.5,10.6 -27,21.3 -40.6,31.8 3.4,-2.6 6.7,-5.2 10.1,-7.8 -35.1,27.1 -73.5,49.6 -114.3,66.9 4,-1.7 8,-3.4 11.9,-5 -42.2,17.8 -86.6,30 -132,36.2 4.4,-0.6 8.9,-1.2 13.3,-1.8 -22.9,3 -45.9,4.6 -69,4.6 -27,0 -50,22.9 -50,50 0,20.3 0,40.7 0,61 0,43.6 0,87.1 0,130.7 0,40.7 0,81.3 0,122 0,10.9 0,21.8 0,32.7 0,22 2,43.5 5.2,65.3 10.9,75 48,146.3 100.4,200.6 23.7,24.6 51.5,46.1 81,63.3 8.9,5.2 17.8,10.3 26.6,15.5 37.5,21.8 75,43.7 112.6,65.5 14.1,8.2 28.1,16.4 42.2,24.6 2.7,1.6 5.4,3.2 8.2,4.7 16.2,8.8 34.7,8.9 50.9,0 0.9,-0.5 1.8,-1 2.6,-1.5 30.3,-17.2 60.5,-34.4 90.8,-51.6 32.2,-18.3 64.5,-36.6 96.7,-55 1.8,-1.1 3.7,-2.1 5.5,-3.2 10.8,-6.2 19.7,-17.9 23,-29.9 3.3,-12 1.8,-27.9 -5,-38.5 -6.9,-10.7 -17.1,-20.1 -29.9,-23 -13.1,-2.7 -26.4,-1.5 -38.4,5.3 z"
   id="path4"
   inkscape:connector-curvature="0" />
		</g>
	</g>
</g>


<path
   class="st2"
   d="M 531,678.43762 H 281.2 c -19.2,0 -34.7,-15.5 -34.7,-34.7 v -180.4 c 0,-19.2 15.5,-34.7 34.7,-34.7 h 6.7 v -6.8 h 0.2 c 0,-65.3 52.9,-118.2 118.2,-118.2 65.3,0 117.7,52.9 117.7,118.2 0,2.4 0.1,4.6 0.1,6.8 h 6.8 c 19.2,0 34.7,15.5 34.7,34.7 v 180.5 c 0.1,19.1 -15.4,34.6 -34.6,34.6 z m -124.4,-333.2 c -42.2,0 -76.4,34.2 -76.4,76.4 h -0.1 v 7 h 152.6 v -0.5 c 0.2,-2 0.3,-4.1 0.3,-6.4 0,-42.3 -34.2,-76.5 -76.4,-76.5 z m 117.6,139.1 c 0,-7.7 -6.2,-13.9 -13.9,-13.9 H 301.9 c -7.7,0 -13.9,6.2 -13.9,13.9 v 138.7 c 0,7.7 6.2,13.9 13.9,13.9 h 208.4 c 7.7,0 13.9,-6.2 13.9,-13.9 z m -114.7,110.7 h -6.9 c -9.6,0 -17.3,-7.7 -17.3,-17.3 v -48 c 0,-9.6 7.7,-17.3 17.3,-17.3 h 6.9 c 9.6,0 17.3,7.7 17.3,17.3 v 48 c 0,9.6 -7.8,17.3 -17.3,17.3 z"
   id="path16"
   inkscape:connector-curvature="0"
   style="clip-rule:evenodd;fill-rule:evenodd" />
</svg>