<?xml version="1.0" encoding="UTF-8" standalone="no"?>
<svg
   xmlns:dc="http://purl.org/dc/elements/1.1/"
   xmlns:cc="http://creativecommons.org/ns#"
   xmlns:rdf="http://www.w3.org/1999/02/22-rdf-syntax-ns#"
   xmlns:svg="http://www.w3.org/2000/svg"
   xmlns="http://www.w3.org/2000/svg"
   xmlns:sodipodi="http://sodipodi.sourceforge.net/DTD/sodipodi-0.dtd"
   xmlns:inkscape="http://www.inkscape.org/namespaces/inkscape"
   viewBox="0 0 106.03334 36.219589"
   x="0px"
   y="0px"
   version="1.1"
   id="svg20"
   sodipodi:docname="noun_Glasses_2439301.svg"
   width="106.03334"
   height="36.219589"
   inkscape:version="0.92.3 (2405546, 2018-03-11)">
  <metadata
     id="metadata26">
    <rdf:RDF>
      <cc:Work
         rdf:about="">
        <dc:format>image/svg+xml</dc:format>
        <dc:type
           rdf:resource="http://purl.org/dc/dcmitype/StillImage" />
      </cc:Work>
    </rdf:RDF>
  </metadata>
  <defs
     id="defs24" />
  <sodipodi:namedview
     pagecolor="#ffffff"
     bordercolor="#666666"
     borderopacity="1"
     objecttolerance="10"
     gridtolerance="10"
     guidetolerance="10"
     inkscape:pageopacity="0"
     inkscape:pageshadow="2"
     inkscape:window-width="1366"
     inkscape:window-height="729"
     id="namedview22"
     showgrid="false"
     inkscape:zoom="1.888"
     inkscape:cx="47.15964"
     inkscape:cy="14.160133"
     inkscape:window-x="0"
     inkscape:window-y="0"
     inkscape:window-maximized="1"
     inkscape:current-layer="svg20" />
  <title
     id="title2">glasses</title>
  <g
     data-name="Calque 2"
     id="g14"
     transform="matrix(2,0,0,2,-46.994278,-81.940412)">
    <path
       d="m 33.5,58.61 c -4.88,0 -8.55,-3.25 -9.59,-8.48 -0.67,-3.44 -0.53,-5.62 0.46,-7 A 4,4 0 0 1 27.06,41.51 50.61,50.61 0 0 1 33.73,41 c 6.21,-0.15 10.06,0.17 12.11,3.23 1.54,2.31 1.13,5.7 -1.28,10.36 -1.82,3.54 -5.94,3.93 -10.73,4.06 z m 2.2,-15.37 c -0.61,0 -1.25,0 -1.93,0 a 49.59,49.59 0 0 0 -6.33,0.49 1.62,1.62 0 0 0 -1.17,0.66 c -0.58,0.83 -0.61,2.61 -0.09,5.27 0.82,4.17 3.6,6.64 7.38,6.62 h 0.14 c 5,-0.14 7.67,-0.61 8.81,-2.82 2,-3.79 2.43,-6.49 1.41,-8 -1.02,-1.51 -3.26,-2.22 -8.22,-2.22 z"
       id="path4"
       inkscape:connector-curvature="0" />
    <path
       d="M 66.5,59.08 H 66.15 C 61.38,58.95 57.27,58.55 55.44,55.02 53,50.35 52.61,47 54.16,44.65 c 1.83,-2.73 5.1,-3.26 10.14,-3.26 h 2 a 50.72,50.72 0 0 1 6.65,0.52 3.91,3.91 0 0 1 2.69,1.62 c 1,1.43 1.13,3.6 0.45,7 -1.04,5.3 -4.71,8.55 -9.59,8.55 z M 64.3,43.7 c -5,0 -7.12,0.58 -8.22,2.24 -1.1,1.66 -0.55,4.21 1.41,8 1.14,2.2 3.84,2.67 8.75,2.81 h 0.26 c 3.77,0 6.5,-2.48 7.32,-6.62 0.52,-2.66 0.49,-4.44 -0.09,-5.28 A 1.59,1.59 0 0 0 72.56,44.2 49.49,49.49 0 0 0 66.25,43.71 Z"
       id="path6"
       inkscape:connector-curvature="0" />
    <path
       d="M 45.6,50.06 A 1.15,1.15 0 0 1 44.69,48.2 c 1.55,-2 3.32,-3.05 5.24,-3.08 H 50 a 7.64,7.64 0 0 1 5.27,2.68 1.1542638,1.1542638 0 0 1 -1.78,1.47 5.4,5.4 0 0 0 -3.49,-1.84 4.65,4.65 0 0 0 -3.45,2.18 1.16,1.16 0 0 1 -0.95,0.45 z"
       id="path8"
       inkscape:connector-curvature="0" />
    <path
       d="m 39.3,54 a 1.16,1.16 0 0 1 -1.15,-1.13 c 0,0 -0.14,-3.42 -2.23,-3.71 -3.05,-0.43 -11,-1.31 -11.09,-1.32 a 1.16,1.16 0 0 1 0.25,-2.3 c 0.08,0 8.07,0.9 11.16,1.33 3.09,0.43 4.16,3.94 4.22,5.94 A 1.16,1.16 0 0 1 39.34,54 Z"
       id="path10"
       inkscape:connector-curvature="0" />
    <path
       d="m 60.52,54.47 v 0 A 1.16,1.16 0 0 1 59.4,53.28 c 0.05,-2 1,-5.5 4.22,-6 C 66.84,46.78 74.66,46 74.74,46 A 1.162293,1.162293 0 0 1 75,48.31 c -0.09,0 -8,0.89 -11.09,1.31 -2.09,0.29 -2.23,3.69 -2.24,3.73 a 1.15,1.15 0 0 1 -1.15,1.12 z"
       id="path12"
       inkscape:connector-curvature="0" />
  </g>
</svg>
