<?xml version="1.0" encoding="UTF-8" standalone="no"?>
<svg
   xmlns:dc="http://purl.org/dc/elements/1.1/"
   xmlns:cc="http://creativecommons.org/ns#"
   xmlns:rdf="http://www.w3.org/1999/02/22-rdf-syntax-ns#"
   xmlns:svg="http://www.w3.org/2000/svg"
   xmlns="http://www.w3.org/2000/svg"
   xmlns:sodipodi="http://sodipodi.sourceforge.net/DTD/sodipodi-0.dtd"
   xmlns:inkscape="http://www.inkscape.org/namespaces/inkscape"
   version="1.1"
   x="0px"
   y="0px"
   viewBox="0 0 460 462.99631"
   xml:space="preserve"
   id="svg50"
   sodipodi:docname="noun_lab_2355623.svg"
   width="460"
   height="462.99631"
   inkscape:version="0.92.3 (2405546, 2018-03-11)"><metadata
     id="metadata56"><rdf:RDF><cc:Work
         rdf:about=""><dc:format>image/svg+xml</dc:format><dc:type
           rdf:resource="http://purl.org/dc/dcmitype/StillImage" /></cc:Work></rdf:RDF></metadata><defs
     id="defs54" /><sodipodi:namedview
     pagecolor="#ffffff"
     bordercolor="#666666"
     borderopacity="1"
     objecttolerance="10"
     gridtolerance="10"
     guidetolerance="10"
     inkscape:pageopacity="0"
     inkscape:pageshadow="2"
     inkscape:window-width="1366"
     inkscape:window-height="729"
     id="namedview52"
     showgrid="false"
     inkscape:zoom="0.36875"
     inkscape:cx="259.83051"
     inkscape:cy="167.497"
     inkscape:window-x="0"
     inkscape:window-y="0"
     inkscape:window-maximized="1"
     inkscape:current-layer="svg50" /><g
     id="g44"
     transform="translate(-26,-24.500692)"><g
       id="g42"><g
         id="g36"><g
           id="g4"><path
             d="m 255.45,239.972 c -1.617,0 -3.225,-0.392 -4.68,-1.163 L 215.419,220.09 c -2.344,-1.241 -4.099,-3.362 -4.878,-5.897 l -8.316,-27.034 c -0.78,-2.535 -0.521,-5.276 0.721,-7.62 L 268.459,55.813 c 1.241,-2.344 3.363,-4.099 5.897,-4.878 2.534,-0.779 5.275,-0.521 7.62,0.721 l 70.7,37.437 c 4.881,2.584 6.742,8.636 4.158,13.517 L 291.32,226.335 c -1.241,2.344 -3.362,4.099 -5.897,4.878 l -27.033,8.316 c -0.961,0.296 -1.953,0.443 -2.94,0.443 z m -27.012,-35.618 28.03,14.842 19.115,-5.88 58.896,-111.228 -53.025,-28.078 -58.896,111.228 z"
             id="path2"
             inkscape:connector-curvature="0" /></g><g
           id="g8"><path
             d="m 265.32,199.943 c -1.578,0 -3.179,-0.375 -4.671,-1.165 l -44.188,-23.397 c -4.881,-2.584 -6.742,-8.636 -4.158,-13.517 2.584,-4.88 8.636,-6.742 13.517,-4.158 l 44.188,23.397 c 4.881,2.584 6.742,8.636 4.158,13.517 -1.794,3.39 -5.261,5.323 -8.846,5.323 z"
             id="path6"
             inkscape:connector-curvature="0" /></g><g
           id="g12"><path
             d="m 330.313,98.572 c -1.578,0 -3.179,-0.375 -4.671,-1.165 L 290.291,78.69 c -2.344,-1.241 -4.099,-3.362 -4.878,-5.897 -0.78,-2.535 -0.521,-5.276 0.72,-7.62 l 18.718,-35.35 c 2.585,-4.881 8.635,-6.742 13.518,-4.158 l 35.351,18.718 c 2.344,1.241 4.099,3.362 4.878,5.897 0.78,2.535 0.521,5.276 -0.72,7.62 L 339.16,93.25 c -1.796,3.389 -5.263,5.322 -8.847,5.322 z m -21.825,-32.878 17.675,9.359 9.358,-17.674 -17.675,-9.359 z"
             id="path10"
             inkscape:connector-curvature="0" /></g><g
           id="g16"><path
             d="m 303.265,299.242 c -1.578,0 -3.179,-0.374 -4.671,-1.164 L 174.868,232.565 c -4.881,-2.584 -6.742,-8.636 -4.158,-13.517 2.584,-4.879 8.635,-6.743 13.517,-4.158 l 123.726,65.512 c 4.881,2.585 6.742,8.637 4.158,13.518 -1.795,3.389 -5.261,5.322 -8.846,5.322 z"
             id="path14"
             inkscape:connector-curvature="0" /></g><g
           id="g20"><path
             d="M 416,447.497 H 96 c -3.214,0 -6.233,-1.545 -8.112,-4.153 -1.88,-2.607 -2.391,-5.96 -1.375,-9.009 l 10.161,-30.481 c 7.248,-21.746 27.518,-36.356 50.441,-36.356 h 105.962 c 5.522,0 10,4.478 10,10 0,5.522 -4.478,10 -10,10 H 147.115 c -14.3,0 -26.946,9.114 -31.467,22.681 l -5.773,17.319 h 292.251 l -5.773,-17.319 c -4.522,-13.565 -17.168,-22.681 -31.468,-22.681 h -61.808 c -5.522,0 -10,-4.478 -10,-10 0,-5.522 4.478,-10 10,-10 h 61.808 c 22.921,0 43.192,14.61 50.441,36.355 l 10.161,30.482 c 1.016,3.05 0.505,6.401 -1.375,9.009 -1.88,2.608 -4.897,4.153 -8.112,4.153 z"
             id="path18"
             inkscape:connector-curvature="0" /></g><g
           id="g24"><path
             d="M 446,487.497 H 66 c -5.523,0 -10,-4.478 -10,-10 v -40 c 0,-5.522 4.477,-10 10,-10 h 80 c 5.523,0 10,4.478 10,10 0,5.522 -4.477,10 -10,10 H 76 v 20 h 360 v -20 H 196 c -5.523,0 -10,-4.478 -10,-10 0,-5.522 4.477,-10 10,-10 h 250 c 5.522,0 10,4.478 10,10 v 40 c 0,5.523 -4.478,10 -10,10 z"
             id="path22"
             inkscape:connector-curvature="0" /></g><g
           id="g34"><g
             id="g28"><path
               d="m 324.433,387.497 h -89.549 c -1.631,0 -3.238,-0.399 -4.68,-1.162 l -17.188,-9.102 c -4.881,-2.585 -6.742,-8.637 -4.158,-13.518 2.585,-4.88 8.635,-6.742 13.517,-4.158 l 14.993,7.939 h 81.044 L 339.569,327.54 C 331.027,320.063 326,309.233 326,297.497 c 0,-22.056 17.944,-40 40,-40 3.377,0 6.735,0.431 9.986,1.269 l 33.244,-62.783 c 0.62,-1.169 0.934,-2.423 0.934,-3.728 0,-2.979 -1.633,-5.695 -4.261,-7.086 l -72.467,-38.371 -18.718,35.35 19.442,10.294 c 9.19,4.867 14.9,14.355 14.9,24.762 0,4.536 -1.127,9.062 -3.259,13.087 l -43.986,83.072 c -4.906,9.265 -19.635,22.668 -33.433,22.668 -3.29,0 -6.349,-0.735 -9.091,-2.186 l -65.402,-34.63 c -1.169,-0.619 -2.424,-0.934 -3.729,-0.934 -2.979,0 -5.693,1.633 -7.085,4.261 l -11.23,21.209 c -0.62,1.17 -0.934,2.424 -0.934,3.728 0,2.979 1.632,5.693 4.261,7.086 l 3.015,1.597 c 4.88,2.585 6.741,8.637 4.156,13.518 -2.584,4.881 -8.636,6.741 -13.518,4.156 l -3.015,-1.597 c -9.19,-4.867 -14.9,-14.354 -14.9,-24.76 0,-4.536 1.127,-9.063 3.259,-13.088 l 11.23,-21.209 c 4.868,-9.191 14.355,-14.9 24.76,-14.9 4.537,0 9.062,1.127 13.088,3.258 l 65.139,34.491 c 4.038,-0.005 13.016,-6.858 15.753,-12.027 l 43.986,-83.072 c 0.62,-1.169 0.934,-2.423 0.934,-3.728 0,-2.979 -1.632,-5.695 -4.26,-7.086 l -28.28,-14.973 c -2.344,-1.241 -4.099,-3.363 -4.878,-5.897 -0.78,-2.535 -0.521,-5.276 0.72,-7.62 l 28.077,-53.025 c 1.241,-2.344 3.362,-4.099 5.897,-4.878 2.535,-0.779 5.275,-0.521 7.62,0.721 l 81.305,43.051 c 9.191,4.867 14.901,14.355 14.901,24.761 0,4.536 -1.127,9.062 -3.259,13.087 l -37.414,70.659 c -1.262,2.381 -3.43,4.152 -6.015,4.913 -2.582,0.762 -5.366,0.447 -7.717,-0.872 -2.968,-1.665 -6.343,-2.545 -9.76,-2.545 -11.028,0 -20,8.972 -20,20 0,7.617 4.239,14.473 11.063,17.892 2.406,1.205 4.226,3.329 5.046,5.893 0.82,2.564 0.572,5.349 -0.687,7.728 l -28.152,53.168 c -1.729,3.269 -5.129,5.316 -8.833,5.316 z"
               id="path26"
               inkscape:connector-curvature="0" /></g><g
             id="g32"><path
               d="m 366,337.497 c -6.276,0 -12.297,-1.423 -17.895,-4.228 C 334.471,326.439 326,312.732 326,297.497 c 0,-22.056 17.944,-40 40,-40 6.837,0 13.596,1.765 19.547,5.104 12.615,7.077 20.453,20.449 20.453,34.896 0,22.056 -17.944,40 -40,40 z m 0,-60 c -11.028,0 -20,8.972 -20,20 0,7.617 4.239,14.473 11.063,17.892 2.793,1.399 5.8,2.108 8.937,2.108 11.028,0 20,-8.972 20,-20 0,-7.223 -3.924,-13.911 -10.239,-17.454 -2.969,-1.666 -6.344,-2.546 -9.761,-2.546 z"
               id="path30"
               inkscape:connector-curvature="0" /></g></g></g><g
         id="g40"><path
           d="M 476,487.497 H 36 c -5.523,0 -10,-4.478 -10,-10 0,-5.522 4.477,-10 10,-10 h 440 c 5.522,0 10,4.478 10,10 0,5.522 -4.478,10 -10,10 z"
           id="path38"
           inkscape:connector-curvature="0" /></g></g></g></svg>