<?xml version="1.0" encoding="UTF-8" standalone="no"?>
<svg
   xmlns:dc="http://purl.org/dc/elements/1.1/"
   xmlns:cc="http://creativecommons.org/ns#"
   xmlns:rdf="http://www.w3.org/1999/02/22-rdf-syntax-ns#"
   xmlns:svg="http://www.w3.org/2000/svg"
   xmlns="http://www.w3.org/2000/svg"
   xmlns:sodipodi="http://sodipodi.sourceforge.net/DTD/sodipodi-0.dtd"
   xmlns:inkscape="http://www.inkscape.org/namespaces/inkscape"
   version="1.1"
   x="0px"
   y="0px"
   viewBox="0 0 92.990776 72.231979"
   enable-background="new 0 0 100 100"
   xml:space="preserve"
   id="svg12"
   sodipodi:docname="noun_Uterus_2007067.svg"
   width="92.990776"
   height="72.231979"
   inkscape:version="0.92.3 (2405546, 2018-03-11)"><metadata
     id="metadata18"><rdf:RDF><cc:Work
         rdf:about=""><dc:format>image/svg+xml</dc:format><dc:type
           rdf:resource="http://purl.org/dc/dcmitype/StillImage" /></cc:Work></rdf:RDF></metadata><defs
     id="defs16" /><sodipodi:namedview
     pagecolor="#ffffff"
     bordercolor="#666666"
     borderopacity="1"
     objecttolerance="10"
     gridtolerance="10"
     guidetolerance="10"
     inkscape:pageopacity="0"
     inkscape:pageshadow="2"
     inkscape:window-width="1366"
     inkscape:window-height="689"
     id="namedview14"
     showgrid="false"
     inkscape:zoom="1.888"
     inkscape:cx="131.24165"
     inkscape:cy="1.3706679"
     inkscape:window-x="0"
     inkscape:window-y="0"
     inkscape:window-maximized="1"
     inkscape:current-layer="svg12" /><g
     id="g6"
     transform="translate(-3.504112,-13.884454)"><path
       d="M 78.305,25.011 C 78.29,24.715 78.188,24.427 78.007,24.186 77.764,23.863 77.402,23.652 77.001,23.6 69.679,22.65 66.445,20.526 63.317,18.471 60.035,16.315 56.935,14.279 50.132,13.888 c -0.064,-0.004 -0.183,-0.005 -0.245,-10e-4 -6.823,0.393 -9.923,2.429 -13.205,4.585 -3.128,2.055 -6.361,4.179 -13.684,5.129 -0.4,0.052 -0.763,0.263 -1.006,0.586 -0.181,0.241 -0.283,0.529 -0.298,0.825 -8.902,1.102 -14.889,5.915 -16.944,10.417 -1.653,3.621 -3.108,10.852 5.716,18.6 0.431,0.377 3.286,2.425 5.583,2.425 0.001,0 0.001,0 0.001,0 0.257,0 0.506,-0.025 0.74,-0.074 0.075,-0.016 0.141,-0.051 0.211,-0.078 0.473,0.072 0.961,0.109 1.467,0.109 0.001,0 0.001,0 0.001,0 1.314,0 2.707,-0.253 4.026,-0.732 2.123,-0.771 3.935,-2.064 5.1,-3.642 1.281,-1.735 1.663,-3.699 1.049,-5.388 -0.038,-0.104 -0.097,-0.197 -0.141,-0.298 1.386,-1.083 3.783,-3.056 5.681,-5.132 1.458,5.079 3.537,11.269 6.411,15.074 2.919,3.866 1.917,9.411 0.908,13.246 -1.242,4.726 1.533,14.412 1.854,15.501 0.233,0.796 1.072,1.247 1.861,1.016 0.795,-0.234 1.25,-1.068 1.017,-1.862 C 45.429,81.456 43.532,73.624 44.405,70.302 45.571,65.863 46.694,59.393 42.989,54.486 39.624,50.029 37.325,41.461 35.952,36.341 34.53,31.038 28.222,30.296 25.279,30.245 25.274,30.191 25.268,30.124 25.263,30.068 25.251,29.936 25.24,29.798 25.227,29.651 25.216,29.536 25.206,29.428 25.196,29.307 25.173,29.057 25.148,28.794 25.12,28.517 25.111,28.421 25.1,28.323 25.091,28.225 25.07,28.017 25.048,27.808 25.025,27.592 25.012,27.477 25,27.363 24.986,27.247 c -0.027,-0.25 -0.058,-0.5 -0.088,-0.753 -0.006,-0.046 -0.011,-0.092 -0.017,-0.139 6.983,-1.132 10.405,-3.38 13.448,-5.379 3.05,-2.003 5.687,-3.735 11.669,-4.094 5.978,0.354 8.617,2.087 11.671,4.094 3.043,1.999 6.465,4.247 13.448,5.379 -0.006,0.045 -0.011,0.091 -0.017,0.136 -0.03,0.255 -0.061,0.508 -0.089,0.76 -0.013,0.115 -0.025,0.226 -0.038,0.339 -0.022,0.214 -0.045,0.423 -0.065,0.629 -0.011,0.099 -0.021,0.199 -0.03,0.296 -0.028,0.281 -0.054,0.546 -0.077,0.8 -0.01,0.11 -0.019,0.208 -0.028,0.313 -0.014,0.153 -0.026,0.298 -0.038,0.435 -0.005,0.057 -0.011,0.125 -0.016,0.18 -2.943,0.051 -9.251,0.793 -10.673,6.096 -1.373,5.12 -3.672,13.688 -7.037,18.145 -3.705,4.908 -2.582,11.377 -1.416,15.816 0.873,3.321 -1.024,11.154 -1.83,13.892 -0.233,0.794 0.222,1.628 1.017,1.862 0.141,0.042 0.283,0.062 0.424,0.062 0.647,0 1.246,-0.424 1.438,-1.077 0.321,-1.089 3.097,-10.775 1.854,-15.501 -1.009,-3.835 -2.011,-9.38 0.908,-13.246 2.874,-3.805 4.953,-9.996 6.411,-15.074 1.897,2.075 4.295,4.049 5.681,5.131 -0.045,0.1 -0.103,0.193 -0.141,0.297 -0.614,1.69 -0.232,3.654 1.049,5.389 1.165,1.577 2.977,2.871 5.1,3.642 1.319,0.479 2.712,0.732 4.027,0.732 0.506,0 0.994,-0.038 1.467,-0.109 0.07,0.026 0.136,0.062 0.211,0.078 0.234,0.049 0.483,0.074 0.74,0.074 2.327,0 5.129,-2.026 5.584,-2.426 8.824,-7.748 7.369,-14.979 5.716,-18.6 -2.056,-4.5 -8.042,-9.314 -16.944,-10.415 z M 12.445,51.772 C 5.449,45.629 5.883,40.17 7.479,36.673 c 1.704,-3.731 6.824,-7.737 14.57,-8.691 0.037,0.339 0.07,0.667 0.101,0.981 0.003,0.032 0.007,0.065 0.01,0.098 0.03,0.317 0.059,0.619 0.083,0.894 -6.139,0.809 -11.254,3.736 -12.985,7.529 -1.201,2.631 -0.807,5.574 1.174,8.748 0.353,0.566 1.036,0.83 1.678,0.65 0.78,-0.219 1.502,-0.369 2.131,-0.443 -0.016,0.021 -0.026,0.044 -0.041,0.065 -0.147,0.207 -0.28,0.422 -0.407,0.643 -0.036,0.063 -0.078,0.123 -0.112,0.187 -0.149,0.278 -0.284,0.564 -0.398,0.859 -0.062,0.157 -0.104,0.32 -0.154,0.48 -0.043,0.135 -0.091,0.268 -0.125,0.405 -0.053,0.206 -0.086,0.414 -0.12,0.624 -0.012,0.072 -0.032,0.143 -0.041,0.215 -0.003,0.025 -0.002,0.049 -0.005,0.073 -0.009,0.076 -0.029,0.149 -0.036,0.225 -0.011,0.131 -0.002,0.258 -0.006,0.387 -0.002,0.078 -0.004,0.154 -0.003,0.231 0.001,0.217 0.012,0.431 0.034,0.643 0.005,0.046 0.013,0.091 0.019,0.137 0.021,0.167 0.032,0.337 0.066,0.5 -0.209,-0.138 -0.372,-0.258 -0.467,-0.341 z m 12.738,-1.517 c -0.807,1.092 -2.159,2.041 -3.71,2.604 -0.995,0.361 -2.034,0.552 -3.003,0.552 0,0 0,0 -10e-4,0 -0.588,0 -1.154,-0.071 -1.654,-0.208 -0.994,-1.011 -1.097,-2.128 -0.998,-2.909 0.021,-0.168 0.055,-0.335 0.098,-0.501 0.004,-0.016 0.01,-0.032 0.014,-0.047 0.041,-0.15 0.089,-0.299 0.146,-0.445 0.015,-0.037 0.032,-0.073 0.048,-0.11 0.052,-0.125 0.106,-0.25 0.17,-0.371 0.028,-0.055 0.061,-0.106 0.092,-0.159 0.058,-0.102 0.115,-0.205 0.181,-0.302 0.042,-0.062 0.089,-0.12 0.133,-0.18 0.062,-0.084 0.123,-0.17 0.19,-0.25 0.05,-0.059 0.104,-0.11 0.156,-0.166 0.07,-0.074 0.138,-0.152 0.212,-0.22 0.037,-0.035 0.078,-0.062 0.116,-0.096 0.221,-0.19 0.453,-0.357 0.7,-0.484 0.001,0 0.001,-10e-4 0.002,-10e-4 0.368,-0.188 0.724,-0.343 1.087,-0.476 0.995,-0.361 2.034,-0.552 3.004,-0.552 1.841,0 3.277,0.682 3.66,1.739 0.362,0.998 -0.248,2.046 -0.643,2.582 z m 7.872,-13.136 c 0.049,0.184 0.103,0.381 0.154,0.573 -1.717,2.396 -5.08,5.148 -6.691,6.401 -1.157,-0.737 -2.65,-1.16 -4.354,-1.16 -1.315,0 -2.708,0.253 -4.027,0.732 -0.187,0.068 -0.374,0.167 -0.562,0.246 -1.21,-0.616 -2.921,-0.689 -5.13,-0.205 -0.955,-1.881 -1.109,-3.551 -0.459,-4.977 1.318,-2.888 5.724,-5.211 10.916,-5.833 0.005,0.005 0.009,0.011 0.015,0.016 0.304,0.261 0.698,0.387 1.099,0.359 0.08,-0.005 7.855,-0.567 9.039,3.848 z m 33.736,0.573 c 0.052,-0.192 0.105,-0.39 0.154,-0.573 1.183,-4.415 8.96,-3.855 9.037,-3.847 0.399,0.034 0.796,-0.096 1.1,-0.358 0.006,-0.005 0.01,-0.012 0.017,-0.017 5.192,0.622 9.597,2.945 10.915,5.833 0.65,1.425 0.496,3.096 -0.459,4.977 -2.197,-0.481 -3.901,-0.413 -5.109,0.192 -0.194,-0.082 -0.389,-0.163 -0.582,-0.232 -1.319,-0.479 -2.712,-0.733 -4.027,-0.733 -1.703,0 -3.196,0.423 -4.354,1.16 -1.611,-1.252 -4.972,-4.002 -6.692,-6.402 z m 11.736,15.167 c -1.551,-0.563 -2.903,-1.513 -3.71,-2.604 -0.396,-0.536 -1.005,-1.584 -0.642,-2.583 0.383,-1.056 1.819,-1.738 3.66,-1.738 0.97,0 2.009,0.191 3.004,0.553 0.363,0.132 0.719,0.287 1.086,0.475 0.262,0.134 0.509,0.312 0.741,0.517 0.024,0.022 0.052,0.041 0.077,0.063 0.076,0.07 0.146,0.15 0.218,0.227 0.051,0.054 0.104,0.104 0.151,0.16 0.065,0.078 0.124,0.162 0.186,0.244 0.046,0.062 0.095,0.123 0.139,0.188 0.062,0.092 0.116,0.19 0.172,0.287 0.034,0.059 0.07,0.116 0.102,0.176 0.06,0.115 0.111,0.234 0.162,0.354 0.018,0.042 0.038,0.084 0.055,0.127 0.055,0.143 0.102,0.287 0.142,0.433 0.005,0.02 0.012,0.04 0.017,0.059 0.043,0.166 0.076,0.332 0.098,0.499 0.099,0.781 -0.004,1.897 -0.998,2.909 -1.326,0.361 -3.061,0.234 -4.66,-0.346 z m 9.028,-1.087 c -0.095,0.083 -0.257,0.203 -0.465,0.341 0.034,-0.163 0.045,-0.333 0.066,-0.5 0.006,-0.045 0.014,-0.091 0.019,-0.137 0.022,-0.212 0.032,-0.426 0.034,-0.643 0,-0.077 -0.001,-0.153 -0.003,-0.231 -0.004,-0.129 0.005,-0.256 -0.006,-0.388 -0.007,-0.076 -0.027,-0.15 -0.036,-0.225 -0.003,-0.024 -0.002,-0.048 -0.005,-0.073 -0.009,-0.072 -0.029,-0.142 -0.041,-0.213 -0.034,-0.21 -0.067,-0.419 -0.12,-0.626 -0.033,-0.136 -0.082,-0.267 -0.123,-0.4 -0.052,-0.162 -0.094,-0.327 -0.156,-0.485 -0.114,-0.294 -0.248,-0.58 -0.397,-0.857 -0.036,-0.067 -0.081,-0.13 -0.119,-0.197 -0.124,-0.216 -0.255,-0.428 -0.399,-0.63 -0.016,-0.022 -0.027,-0.047 -0.043,-0.069 0.629,0.075 1.351,0.224 2.131,0.443 0.644,0.179 1.325,-0.085 1.678,-0.65 1.98,-3.174 2.375,-6.117 1.174,-8.748 -1.73,-3.793 -6.847,-6.72 -12.985,-7.529 0.024,-0.274 0.052,-0.577 0.083,-0.894 0.003,-0.032 0.007,-0.065 0.01,-0.098 0.03,-0.315 0.063,-0.643 0.101,-0.981 7.746,0.954 12.866,4.959 14.57,8.691 1.594,3.498 2.028,8.956 -4.968,15.099 z"
       id="path2"
       inkscape:connector-curvature="0" /><path
       d="m 51.502,67.276 c 0.071,-4.738 0.656,-12.309 2.876,-14.927 2.765,-3.263 2.488,-6.264 2.222,-9.166 -0.032,-0.352 -0.065,-0.708 -0.094,-1.071 -0.032,-0.426 -0.675,-10.461 10.222,-12.883 0.65,-0.145 1.128,-0.701 1.172,-1.366 0.043,-0.665 -0.356,-1.279 -0.982,-1.508 -0.343,-0.125 -8.492,-3.065 -16.917,-3.065 -8.424,0 -16.573,2.94 -16.916,3.065 -0.626,0.229 -1.025,0.843 -0.982,1.508 0.044,0.665 0.521,1.221 1.172,1.366 10.896,2.421 10.254,12.457 10.221,12.883 -0.027,0.362 -0.061,0.718 -0.093,1.07 -0.267,2.902 -0.543,5.902 2.222,9.166 2.221,2.62 2.805,10.215 2.875,14.953 -0.008,0.743 -0.005,1.374 0.002,1.851 -0.004,0.274 -0.01,0.527 -0.017,0.755 -0.026,0.828 0.623,1.521 1.451,1.547 0.017,0 0.032,0.001 0.049,0.001 0.011,-0.001 0.021,0 0.034,0 0.017,0 0.033,0 0.049,-0.001 0.828,-0.026 1.479,-0.719 1.451,-1.547 -0.007,-0.226 -0.013,-0.477 -0.017,-0.748 0.006,-0.483 0.01,-1.125 0,-1.883 z M 50.001,54.733 c -0.51,-1.737 -1.188,-3.261 -2.089,-4.324 -1.951,-2.303 -1.771,-4.252 -1.523,-6.951 0.034,-0.368 0.068,-0.74 0.098,-1.117 0.29,-3.792 -1.208,-10.872 -8.081,-14.442 3.039,-0.772 7.318,-1.608 11.595,-1.608 4.269,0 8.552,0.837 11.593,1.61 -6.871,3.57 -8.368,10.65 -8.078,14.44 0.029,0.377 0.063,0.75 0.098,1.117 0.248,2.698 0.428,4.648 -1.523,6.951 -0.903,1.063 -1.581,2.588 -2.09,4.324 z"
       id="path4"
       inkscape:connector-curvature="0" /></g></svg>