<?xml version="1.0" encoding="UTF-8" standalone="no"?>
<svg
   xmlns:dc="http://purl.org/dc/elements/1.1/"
   xmlns:cc="http://creativecommons.org/ns#"
   xmlns:rdf="http://www.w3.org/1999/02/22-rdf-syntax-ns#"
   xmlns:svg="http://www.w3.org/2000/svg"
   xmlns="http://www.w3.org/2000/svg"
   xmlns:sodipodi="http://sodipodi.sourceforge.net/DTD/sodipodi-0.dtd"
   xmlns:inkscape="http://www.inkscape.org/namespaces/inkscape"
   data-name="Layer 1"
   viewBox="0 0 92.89222 98.03801"
   x="0px"
   y="0px"
   version="1.1"
   id="svg14"
   sodipodi:docname="noun_home location_1183883.svg"
   width="92.89222"
   height="98.03801"
   inkscape:version="0.92.3 (2405546, 2018-03-11)">
  <metadata
     id="metadata20">
    <rdf:RDF>
      <cc:Work
         rdf:about="">
        <dc:format>image/svg+xml</dc:format>
        <dc:type
           rdf:resource="http://purl.org/dc/dcmitype/StillImage" />
      </cc:Work>
    </rdf:RDF>
  </metadata>
  <defs
     id="defs18" />
  <sodipodi:namedview
     pagecolor="#ffffff"
     bordercolor="#666666"
     borderopacity="1"
     objecttolerance="10"
     gridtolerance="10"
     guidetolerance="10"
     inkscape:pageopacity="0"
     inkscape:pageshadow="2"
     inkscape:window-width="1366"
     inkscape:window-height="689"
     id="namedview16"
     showgrid="false"
     inkscape:zoom="1.888"
     inkscape:cx="-37.240331"
     inkscape:cy="36.541718"
     inkscape:window-x="0"
     inkscape:window-y="0"
     inkscape:window-maximized="1"
     inkscape:current-layer="svg14" />
  <title
     id="title2">Artboard 25</title>
  <path
     d="m 73.99611,24.996295 v -17.6 a 2.5,2.5 0 0 0 -2.55,-2.5 h -10.63 a 2.5,2.5 0 0 0 -2.5,2.5 v 2.82 l -10.16,-9.54000002 a 2.5,2.5 0 0 0 -3.42,0 L 0.77610997,41.996295 a 2.5,2.5 0 0 0 1.67000003,4.31 h 14 a 2.5,2.5 0 0 0 0,-5 h -7.65 l 37.65,-35.38 12.65,11.89 a 2.5,2.5 0 0 0 4.22,-1.82 v -6.1 h 5.68 v 16.1 a 2.5,2.5 0 0 0 0.79,1.82 l 14.31,13.49 h -7.71 a 2.5,2.5 0 0 0 -2.5,2.5 v 36.07 h -17.28 a 2.5,2.5 0 0 0 0,5 h 19.78 a 2.5,2.5 0 0 0 2.5,-2.5 v -36.07 h 11.56 a 2.5,2.5 0 0 0 1.67,-4.31 z"
     id="path4"
     inkscape:connector-curvature="0"
     style="fill:#999999;fill-opacity:1" />
  <path
     d="m 31.30611,47.206295 c -0.42,0 -0.85,0 -1.28,0 a 20,20 0 0 0 -18.49,20 c 0.12,12.23 9.64,23.4 15.3,29 a 6.37,6.37 0 0 0 8.94,0 c 5.67,-5.66 15.3,-16.92 15.3,-29.21 a 19.79,19.79 0 0 0 -19.77,-19.79 z m 1,45.39 a 1.4,1.4 0 0 1 -1.93,0 c -4.12,-4 -13.7,-14.62 -13.81,-25.44 a 15,15 0 0 1 13.77,-14.92 c 0.32,0 0.64,0 1,0 a 14.79,14.79 0 0 1 14.74,14.76 c 0,10.86 -9.63,21.52 -13.81,25.6 z"
     id="path6"
     inkscape:connector-curvature="0"
     style="fill:#999999;fill-opacity:1" />
  <path
     d="m 37.81611,60.466295 a 9.2,9.2 0 1 0 0,13 9.22,9.22 0 0 0 0,-13 z m -3.54,9.53 a 4.21,4.21 0 1 1 0,-6 4.21,4.21 0 0 1 0,6 z"
     id="path8"
     inkscape:connector-curvature="0"
     style="fill:#999999;fill-opacity:1" />
</svg>
