<?xml version="1.0" encoding="UTF-8" standalone="no"?>
<svg
   xmlns:dc="http://purl.org/dc/elements/1.1/"
   xmlns:cc="http://creativecommons.org/ns#"
   xmlns:rdf="http://www.w3.org/1999/02/22-rdf-syntax-ns#"
   xmlns:svg="http://www.w3.org/2000/svg"
   xmlns="http://www.w3.org/2000/svg"
   xmlns:sodipodi="http://sodipodi.sourceforge.net/DTD/sodipodi-0.dtd"
   xmlns:inkscape="http://www.inkscape.org/namespaces/inkscape"
   version="1.1"
   x="0px"
   y="0px"
   viewBox="0 0 36.099998 48"
   enable-background="new 0 0 50 50"
   xml:space="preserve"
   id="svg14"
   sodipodi:docname="noun_Stethoscope_2049574.svg"
   width="36.099998"
   height="48"
   inkscape:version="0.92.3 (2405546, 2018-03-11)"><metadata
     id="metadata20"><rdf:RDF><cc:Work
         rdf:about=""><dc:format>image/svg+xml</dc:format><dc:type
           rdf:resource="http://purl.org/dc/dcmitype/StillImage" /></cc:Work></rdf:RDF></metadata><defs
     id="defs18" /><sodipodi:namedview
     pagecolor="#ffffff"
     bordercolor="#666666"
     borderopacity="1"
     objecttolerance="10"
     gridtolerance="10"
     guidetolerance="10"
     inkscape:pageopacity="0"
     inkscape:pageshadow="2"
     inkscape:window-width="1366"
     inkscape:window-height="729"
     id="namedview16"
     showgrid="false"
     inkscape:zoom="3.776"
     inkscape:cx="20.913136"
     inkscape:cy="-14.029661"
     inkscape:window-x="0"
     inkscape:window-y="0"
     inkscape:window-maximized="1"
     inkscape:current-layer="svg14" /><g
     id="g8"
     transform="translate(-7,-1)"><path
       d="M 27.9,49 C 34,49 39,44 39,37.9 V 20.1 c -0.7,0.1 -1.7,0.1 -2.4,-0.1 v 17.9 c 0,4.8 -3.9,8.7 -8.7,8.7 -4.8,0 -8.7,-3.9 -8.7,-8.7 V 25.4 h 0.1 c 0.5,0 0.9,-0.4 0.9,-0.9 v -1.3 c -1.5,0.3 -3,0.3 -4.5,0 v 1.3 c 0,0.5 0.4,0.9 0.9,0.9 h 0.2 v 12.5 c 0,6.1 5,11.1 11.1,11.1 z"
       id="path2"
       inkscape:connector-curvature="0" /><path
       d="m 12.2,4.2 h 1.4 C 14.4,4.2 15,3.6 15,2.8 V 2.4 C 15,1.6 14.4,1 13.6,1 H 12.2 C 12,1 11.8,1.2 11.8,1.4 V 1.6 L 8,1.5 C 7.4,1.5 7,2 7,2.5 v 8.7 c 0,6.1 4.9,11.1 11,11.1 6.1,0 11,-4.8 11,-10.9 V 2.7 c 0,-0.6 -0.5,-1 -1,-1 H 24.1 V 1.5 C 24.2,1.2 24,1 23.8,1 H 22.4 C 21.6,1 21,1.6 21,2.4 v 0.4 c 0,0.8 0.6,1.4 1.4,1.4 h 1.4 C 24,4.2 24.2,4 24.2,3.8 V 3.6 H 27 v 7.7 c 0,5 -4.1,9 -9,9 -5,0 -9,-4.1 -9,-9 V 3.6 h 2.9 V 3.8 C 11.8,4 12,4.2 12.2,4.2 Z"
       id="path4"
       inkscape:connector-curvature="0" /><path
       d="M 43.1,14.1 C 43.1,11.3 40.8,9 38,9 c -2.8,0 -5.1,2.3 -5.1,5.1 0,2.8 2.3,5.1 5.1,5.1 2.8,0 5.1,-2.3 5.1,-5.1 z M 38,16.8 c -1.5,0 -2.6,-1.2 -2.6,-2.6 0,-1.4 1.2,-2.6 2.6,-2.6 1.4,0 2.6,1.2 2.6,2.6 0,1.4 -1.1,2.6 -2.6,2.6 z"
       id="path6"
       inkscape:connector-curvature="0" /></g></svg>