<?xml version="1.0" encoding="UTF-8" standalone="no"?>
<svg
   xmlns:dc="http://purl.org/dc/elements/1.1/"
   xmlns:cc="http://creativecommons.org/ns#"
   xmlns:rdf="http://www.w3.org/1999/02/22-rdf-syntax-ns#"
   xmlns:svg="http://www.w3.org/2000/svg"
   xmlns="http://www.w3.org/2000/svg"
   xmlns:sodipodi="http://sodipodi.sourceforge.net/DTD/sodipodi-0.dtd"
   xmlns:inkscape="http://www.inkscape.org/namespaces/inkscape"
   version="1.1"
   x="0px"
   y="0px"
   viewBox="0 0 62 62"
   xml:space="preserve"
   id="svg38"
   sodipodi:docname="noun_Machine_3022659.svg"
   width="62"
   height="62"
   inkscape:version="0.92.3 (2405546, 2018-03-11)"><metadata
     id="metadata44"><rdf:RDF><cc:Work
         rdf:about=""><dc:format>image/svg+xml</dc:format><dc:type
           rdf:resource="http://purl.org/dc/dcmitype/StillImage" /></cc:Work></rdf:RDF></metadata><defs
     id="defs42" /><sodipodi:namedview
     pagecolor="#ffffff"
     bordercolor="#666666"
     borderopacity="1"
     objecttolerance="10"
     gridtolerance="10"
     guidetolerance="10"
     inkscape:pageopacity="0"
     inkscape:pageshadow="2"
     inkscape:window-width="1024"
     inkscape:window-height="729"
     id="namedview40"
     showgrid="false"
     inkscape:zoom="2.95"
     inkscape:cx="-22.559322"
     inkscape:cy="9.440678"
     inkscape:window-x="1366"
     inkscape:window-y="0"
     inkscape:window-maximized="1"
     inkscape:current-layer="svg38" /><g
     id="g32"
     transform="translate(-1,-1)"
     style="fill:#999999;fill-opacity:1"><path
       d="M 32,16.586 22.586,26 38,41.414 47.414,32 Z M 25.414,26 32,19.414 44.586,32 38,38.586 Z"
       id="path2"
       inkscape:connector-curvature="0"
       style="fill:#999999;fill-opacity:1" /><path
       d="M 63,8.184 59.899,7.548 59.642,4.372 56.46,4.111 55.813,1 h -4.228 l -9.102,9.102 C 40.972,8.748 39.046,8 37,8 34.798,8 32.729,8.857 31.172,10.414 L 18.197,23.389 c -1.36,1.36 -2.411,2.954 -3.125,4.739 -0.612,1.532 -1.515,2.9 -2.682,4.068 L 2.708,41.878 C 1.622,42.964 1,44.466 1,46 c 0,1.534 0.622,3.036 1.707,4.121 L 13.879,61.293 C 14.979,62.394 16.443,63 18,63 c 1.557,0 3.021,-0.606 4.121,-1.707 l 9.683,-9.682 c 1.165,-1.166 2.534,-2.069 4.068,-2.683 1.786,-0.715 3.381,-1.767 4.739,-3.126 L 53.586,32.827 C 55.143,31.271 56,29.202 56,27 56,24.954 55.252,23.028 53.898,21.516 L 63,12.414 Z m -21.93,3.332 -3.691,3.691 -4.025,-4.025 C 34.41,10.418 35.671,10 37,10 c 1.511,0 2.937,0.538 4.07,1.516 z M 15.293,59.879 4.121,48.707 C 3.409,47.994 3,47.008 3,46 3,45.05 3.374,44.127 4.012,43.426 l 16.561,16.561 c -1.463,1.324 -3.875,1.296 -5.28,-0.108 z m 23.904,-15.49 c -1.167,1.167 -2.535,2.069 -4.068,2.683 -1.787,0.716 -3.382,1.768 -4.739,3.126 L 22,58.586 5.414,42 13.803,33.61 c 1.36,-1.36 2.412,-2.955 3.125,-4.739 0.613,-1.533 1.515,-2.901 2.682,-4.068 L 31.878,12.535 51.464,32.121 Z M 54,27 c 0,1.329 -0.418,2.59 -1.182,3.646 L 48.793,26.621 52.484,22.93 C 53.462,24.063 54,25.489 54,27 Z M 61,11.586 47.379,25.207 38.793,16.621 52.414,3 h 1.772 l 0.619,2.982 2.98,0.245 0.241,2.979 2.974,0.61 z"
       id="path4"
       inkscape:connector-curvature="0"
       style="fill:#999999;fill-opacity:1" /><rect
       x="44.5"
       y="14.964"
       transform="matrix(0.7071,-0.7071,0.7071,0.7071,0.2452,37.5919)"
       width="2"
       height="7.0710001"
       id="rect6"
       style="fill:#999999;fill-opacity:1" /><rect
       x="47.5"
       y="11.964"
       transform="matrix(0.7071,-0.7071,0.7071,0.7071,3.2452,38.8345)"
       width="2"
       height="7.0710001"
       id="rect8"
       style="fill:#999999;fill-opacity:1" /><rect
       x="50.5"
       y="8.9639997"
       transform="matrix(0.7071,-0.7071,0.7071,0.7071,6.2452,40.0772)"
       width="2"
       height="7.0710001"
       id="rect10"
       style="fill:#999999;fill-opacity:1" /><rect
       x="53.5"
       y="5.9640002"
       transform="matrix(0.7071,-0.7071,0.7071,0.7071,9.2452,41.3198)"
       width="2"
       height="7.0710001"
       id="rect12"
       style="fill:#999999;fill-opacity:1" /><path
       d="m 32,39 c -1.654,0 -3,1.346 -3,3 0,1.654 1.346,3 3,3 1.654,0 3,-1.346 3,-3 0,-1.654 -1.346,-3 -3,-3 z m 0,4 c -0.551,0 -1,-0.448 -1,-1 0,-0.552 0.449,-1 1,-1 0.551,0 1,0.448 1,1 0,0.552 -0.449,1 -1,1 z"
       id="path14"
       inkscape:connector-curvature="0"
       style="fill:#999999;fill-opacity:1" /><path
       d="m 27,44 c -1.654,0 -3,1.346 -3,3 0,1.654 1.346,3 3,3 1.654,0 3,-1.346 3,-3 0,-1.654 -1.346,-3 -3,-3 z m 0,4 c -0.551,0 -1,-0.448 -1,-1 0,-0.552 0.449,-1 1,-1 0.551,0 1,0.448 1,1 0,0.552 -0.449,1 -1,1 z"
       id="path16"
       inkscape:connector-curvature="0"
       style="fill:#999999;fill-opacity:1" /><path
       d="m 22,49 c -1.654,0 -3,1.346 -3,3 0,1.654 1.346,3 3,3 1.654,0 3,-1.346 3,-3 0,-1.654 -1.346,-3 -3,-3 z m 0,4 c -0.551,0 -1,-0.448 -1,-1 0,-0.552 0.449,-1 1,-1 0.551,0 1,0.448 1,1 0,0.552 -0.449,1 -1,1 z"
       id="path18"
       inkscape:connector-curvature="0"
       style="fill:#999999;fill-opacity:1" /><path
       d="m 30,37 c 0,-1.654 -1.346,-3 -3,-3 -1.654,0 -3,1.346 -3,3 0,1.654 1.346,3 3,3 1.654,0 3,-1.346 3,-3 z m -4,0 c 0,-0.552 0.449,-1 1,-1 0.551,0 1,0.448 1,1 0,0.552 -0.449,1 -1,1 -0.551,0 -1,-0.448 -1,-1 z"
       id="path20"
       inkscape:connector-curvature="0"
       style="fill:#999999;fill-opacity:1" /><path
       d="m 22,39 c -1.654,0 -3,1.346 -3,3 0,1.654 1.346,3 3,3 1.654,0 3,-1.346 3,-3 0,-1.654 -1.346,-3 -3,-3 z m 0,4 c -0.551,0 -1,-0.448 -1,-1 0,-0.552 0.449,-1 1,-1 0.551,0 1,0.448 1,1 0,0.552 -0.449,1 -1,1 z"
       id="path22"
       inkscape:connector-curvature="0"
       style="fill:#999999;fill-opacity:1" /><path
       d="m 20,47 c 0,-1.654 -1.346,-3 -3,-3 -1.654,0 -3,1.346 -3,3 0,1.654 1.346,3 3,3 1.654,0 3,-1.346 3,-3 z m -3,1 c -0.551,0 -1,-0.448 -1,-1 0,-0.552 0.449,-1 1,-1 0.551,0 1,0.448 1,1 0,0.552 -0.449,1 -1,1 z"
       id="path24"
       inkscape:connector-curvature="0"
       style="fill:#999999;fill-opacity:1" /><path
       d="m 22,35 c 1.654,0 3,-1.346 3,-3 0,-1.654 -1.346,-3 -3,-3 -1.654,0 -3,1.346 -3,3 0,1.654 1.346,3 3,3 z m 0,-4 c 0.551,0 1,0.449 1,1 0,0.551 -0.449,1 -1,1 -0.551,0 -1,-0.449 -1,-1 0,-0.551 0.449,-1 1,-1 z"
       id="path26"
       inkscape:connector-curvature="0"
       style="fill:#999999;fill-opacity:1" /><path
       d="m 17,40 c 1.654,0 3,-1.346 3,-3 0,-1.654 -1.346,-3 -3,-3 -1.654,0 -3,1.346 -3,3 0,1.654 1.346,3 3,3 z m 0,-4 c 0.551,0 1,0.448 1,1 0,0.552 -0.449,1 -1,1 -0.551,0 -1,-0.448 -1,-1 0,-0.552 0.449,-1 1,-1 z"
       id="path28"
       inkscape:connector-curvature="0"
       style="fill:#999999;fill-opacity:1" /><path
       d="m 15,42 c 0,-1.654 -1.346,-3 -3,-3 -1.654,0 -3,1.346 -3,3 0,1.654 1.346,3 3,3 1.654,0 3,-1.346 3,-3 z m -3,1 c -0.551,0 -1,-0.448 -1,-1 0,-0.552 0.449,-1 1,-1 0.551,0 1,0.448 1,1 0,0.552 -0.449,1 -1,1 z"
       id="path30"
       inkscape:connector-curvature="0"
       style="fill:#999999;fill-opacity:1" /></g></svg>