<?xml version="1.0"?>
<svg xmlns="http://www.w3.org/2000/svg" xmlns:xlink="http://www.w3.org/1999/xlink" xmlns:svgjs="http://svgjs.com/svgjs" version="1.1" width="512" height="512" x="0" y="0" viewBox="0 0 364.001 364.001" style="enable-background:new 0 0 512 512" xml:space="preserve"><g>
<g xmlns="http://www.w3.org/2000/svg">
	<g>
		<path d="M363.901,272.644c0-0.5,0-0.8,0-1.2v-177.5c0.1-16.1-7.4-31.3-20.2-41l-51.5-39.6c-4.3-3.4-10.6-2.7-14,1.6    s-2.7,10.6,1.6,14c0.1,0.1,0.2,0.1,0.2,0.2l51.5,39.5c7.8,6,12.4,15.3,12.4,25.2v129c-28.7-31.9-77.8-34.5-109.7-5.9    c-6.2,5.5-11.4,12-15.5,19.3l-11.7-4.4c-16.3-6.1-34.2-5.7-50.2,1.2l-10.9,4.7c-20.5-37.7-67.6-51.7-105.3-31.2    c-7.8,4.2-14.8,9.8-20.7,16.3v-128.9c0-9.9,4.5-19.2,12.4-25.2l51.5-39.6c4.4-3.4,5.2-9.6,1.8-14c-3.4-4.4-9.6-5.2-14-1.8    l-51.5,39.6c-12.8,9.8-20.2,24.9-20.1,41v177.5c0,0.4,0,0.7,0.1,1.1c0,0.8-0.1,1.6-0.1,2.4c0,42.9,34.8,77.8,77.7,77.8    s77.8-34.8,77.8-77.7c0-6.3-0.8-12.5-2.2-18.6l11.5-4.9c11.2-4.8,23.9-5.1,35.3-0.8l11.1,4.2c-11.1,41.5,13.5,84.1,55,95.2    c41.5,11.1,84.1-13.5,95.2-55c1.8-6.6,2.6-13.3,2.6-20.1C364.001,274.244,364.001,273.444,363.901,272.644z M77.701,332.644    c-31.9,0-57.8-25.9-57.8-57.8c0-31.9,25.9-57.8,57.8-57.8c31.9,0,57.8,25.9,57.8,57.8    C135.401,306.744,109.501,332.644,77.701,332.644z M286.101,332.644c-31.9,0-57.8-25.9-57.8-57.8c0-31.9,25.9-57.8,57.8-57.8    c31.9,0,57.8,25.9,57.8,57.8C343.901,306.744,318.001,332.644,286.101,332.644z" fill="#ffffff" data-original="#000000" style=""/>
	</g>
</g>
<g xmlns="http://www.w3.org/2000/svg">
</g>
<g xmlns="http://www.w3.org/2000/svg">
</g>
<g xmlns="http://www.w3.org/2000/svg">
</g>
<g xmlns="http://www.w3.org/2000/svg">
</g>
<g xmlns="http://www.w3.org/2000/svg">
</g>
<g xmlns="http://www.w3.org/2000/svg">
</g>
<g xmlns="http://www.w3.org/2000/svg">
</g>
<g xmlns="http://www.w3.org/2000/svg">
</g>
<g xmlns="http://www.w3.org/2000/svg">
</g>
<g xmlns="http://www.w3.org/2000/svg">
</g>
<g xmlns="http://www.w3.org/2000/svg">
</g>
<g xmlns="http://www.w3.org/2000/svg">
</g>
<g xmlns="http://www.w3.org/2000/svg">
</g>
<g xmlns="http://www.w3.org/2000/svg">
</g>
<g xmlns="http://www.w3.org/2000/svg">
</g>
</g></svg>
