<?xml version="1.0"?>
<svg xmlns="http://www.w3.org/2000/svg" xmlns:xlink="http://www.w3.org/1999/xlink" xmlns:svgjs="http://svgjs.com/svgjs" version="1.1" width="512" height="512" x="0" y="0" viewBox="0 0 512 512" style="enable-background:new 0 0 512 512" xml:space="preserve" class=""><g>
<g xmlns="http://www.w3.org/2000/svg">
	<g transform="translate(1 1)">
		<path style="" d="M417.133,169.667c0,73.131-108.117,262.997-147.797,324.949c-2.872,4.523-7.711,7.425-13.054,7.829    c-5.343,0.403-10.563-1.74-14.082-5.781c-0.605-0.608-1.122-1.297-1.536-2.048c-39.68-61.952-147.797-251.818-147.797-324.949    C92.888,85.096,157.895,14.74,242.2,8.045c4.181-0.341,8.533-0.512,12.8-0.512C344.535,7.554,417.113,80.131,417.133,169.667z" fill="#bbbbbb" data-original="#c52828" class=""/>
		<path style="" d="M391.533,169.667c0,73.131-108.117,262.997-147.797,324.949c-0.414,0.751-0.931,1.441-1.536,2.048    c-0.605-0.608-1.122-1.297-1.536-2.048c-39.68-61.952-147.797-251.819-147.797-324.949C92.888,85.096,157.895,14.74,242.2,8.045    C326.505,14.74,391.512,85.096,391.533,169.667L391.533,169.667z" fill="#ffffff" data-original="#f44335" class=""/>
		<circle style="" cx="255" cy="171.459" r="85.333" fill="#bbbbbb" data-original="#c52828" class=""/>
		<circle style="" cx="255" cy="171.459" r="51.2" fill="#ebebeb" data-original="#cfd8dc" class=""/>
		<ellipse style="" cx="242.2" cy="171.459" rx="38.4" ry="51.2" fill="#f5f5f5" data-original="#f5f5f5"/>
	</g>
	<g>
		<path d="M349.867,172.463c0-51.841-42.026-93.867-93.867-93.867s-93.867,42.026-93.867,93.867s42.026,93.867,93.867,93.867    C307.817,266.271,349.808,224.279,349.867,172.463L349.867,172.463z M179.2,172.463c0-42.415,34.385-76.8,76.8-76.8    s76.8,34.385,76.8,76.8s-34.385,76.8-76.8,76.8C213.605,249.213,179.249,214.858,179.2,172.463L179.2,172.463z" fill="#000000" data-original="#000000" style=""/>
		<path d="M315.733,172.463c0-32.99-26.744-59.733-59.733-59.733s-59.733,26.744-59.733,59.733S223.01,232.196,256,232.196    C288.975,232.159,315.696,205.437,315.733,172.463L315.733,172.463z M213.333,172.463c0-23.564,19.103-42.667,42.667-42.667    s42.667,19.103,42.667,42.667S279.564,215.129,256,215.129C232.447,215.102,213.361,196.015,213.333,172.463L213.333,172.463z" fill="#000000" data-original="#000000" style=""/>
		<path d="M256,512c8.724,0.018,16.849-4.432,21.533-11.792c31.5-49.217,149.133-249.387,149.133-329.542    C426.667,76.41,350.257,0,256,0S85.333,76.41,85.333,170.667c0,80.154,117.633,280.325,149.133,329.542    C239.151,507.568,247.276,512.018,256,512z M256,17.067c84.791,0.096,153.505,68.809,153.6,153.6    c0,69.85-107.342,259.25-146.442,320.341c-1.629,2.345-4.303,3.744-7.158,3.744c-2.855,0-5.53-1.399-7.158-3.744    C209.742,429.917,102.4,240.517,102.4,170.667C102.496,85.875,171.209,17.162,256,17.067z" fill="#000000" data-original="#000000" style=""/>
	</g>
</g>
<g xmlns="http://www.w3.org/2000/svg">
</g>
<g xmlns="http://www.w3.org/2000/svg">
</g>
<g xmlns="http://www.w3.org/2000/svg">
</g>
<g xmlns="http://www.w3.org/2000/svg">
</g>
<g xmlns="http://www.w3.org/2000/svg">
</g>
<g xmlns="http://www.w3.org/2000/svg">
</g>
<g xmlns="http://www.w3.org/2000/svg">
</g>
<g xmlns="http://www.w3.org/2000/svg">
</g>
<g xmlns="http://www.w3.org/2000/svg">
</g>
<g xmlns="http://www.w3.org/2000/svg">
</g>
<g xmlns="http://www.w3.org/2000/svg">
</g>
<g xmlns="http://www.w3.org/2000/svg">
</g>
<g xmlns="http://www.w3.org/2000/svg">
</g>
<g xmlns="http://www.w3.org/2000/svg">
</g>
<g xmlns="http://www.w3.org/2000/svg">
</g>
</g></svg>
