<?xml version="1.0" encoding="UTF-8" standalone="no"?>
<!-- Generator: Adobe Illustrator 19.2.1, SVG Export Plug-In . SVG Version: 6.00 Build 0)  -->

<svg
   xmlns:dc="http://purl.org/dc/elements/1.1/"
   xmlns:cc="http://creativecommons.org/ns#"
   xmlns:rdf="http://www.w3.org/1999/02/22-rdf-syntax-ns#"
   xmlns:svg="http://www.w3.org/2000/svg"
   xmlns="http://www.w3.org/2000/svg"
   xmlns:sodipodi="http://sodipodi.sourceforge.net/DTD/sodipodi-0.dtd"
   xmlns:inkscape="http://www.inkscape.org/namespaces/inkscape"
   version="1.1"
   id="layer"
   x="0px"
   y="0px"
   viewBox="0 0 652 652"
   xml:space="preserve"
   sodipodi:docname="la-roche-posay-laboratoire-dermatologique-vector-logo.svg"
   style="enable-background:new 0 0 652 652;"
   inkscape:version="0.92.3 (2405546, 2018-03-11)"><metadata
   id="metadata89"><rdf:RDF><cc:Work
       rdf:about=""><dc:format>image/svg+xml</dc:format><dc:type
         rdf:resource="http://purl.org/dc/dcmitype/StillImage" /></cc:Work></rdf:RDF></metadata><defs
   id="defs87" /><sodipodi:namedview
   pagecolor="#ffffff"
   bordercolor="#666666"
   borderopacity="1"
   objecttolerance="10"
   gridtolerance="10"
   guidetolerance="10"
   inkscape:pageopacity="0"
   inkscape:pageshadow="2"
   inkscape:window-width="720"
   inkscape:window-height="480"
   id="namedview85"
   showgrid="false"
   inkscape:zoom="0.36196319"
   inkscape:cx="306"
   inkscape:cy="119.2"
   inkscape:window-x="0"
   inkscape:window-y="0"
   inkscape:window-maximized="0"
   inkscape:current-layer="layer" />
<style
   type="text/css"
   id="style2">
	.st0{fill:#2AA7DF;}
</style>
<polygon
   points="22.7,340.2 22.7,392 53,392 53,385.3 30,385.3 30,340.2 "
   id="polygon4" />
<path
   d="M75.7,339.9h5.1l22.9,52h-7.5l-6.8-15.3H67.7L61.3,392h-7.5L75.7,339.9z M86.4,370.1l-8.2-18.7l-7.6,18.7H86.4z"
   id="path6" />
<g
   id="g82">
	<path
   d="M130.3,392v-51.8h12.8c5.2,0,9.3,1.3,12.3,3.9c3,2.6,4.5,6.1,4.5,10.5c0,3-0.7,5.6-2.2,7.8c-1.5,2.2-3.6,3.8-6.4,4.9   c1.6,1.1,3.2,2.6,4.8,4.4c1.6,1.9,3.8,5.2,6.6,9.8c1.8,2.9,3.2,5.1,4.3,6.6l2.7,3.7h-8.7l-2.2-3.4c-0.1-0.1-0.2-0.3-0.4-0.6l-1.4-2   l-2.3-3.8l-2.4-4c-1.5-2.1-2.9-3.8-4.1-5.1c-1.3-1.3-2.4-2.2-3.4-2.7c-1-0.6-2.7-0.8-5.1-0.8h-1.9V392H130.3z M139.8,346.5h-2.2   v16.3h2.8c3.7,0,6.2-0.3,7.6-1c1.4-0.6,2.4-1.6,3.2-2.9c0.8-1.3,1.1-2.8,1.1-4.4c0-1.6-0.4-3.1-1.3-4.4c-0.9-1.3-2.1-2.3-3.6-2.8   C145.9,346.8,143.4,346.5,139.8,346.5"
   id="path8" />
	<path
   d="M195.8,339.5c7.9,0,14.4,2.5,19.7,7.6c5.2,5.1,7.9,11.4,7.9,19s-2.6,13.9-7.9,18.9c-5.3,5-12,7.5-20,7.5   c-7.7,0-14.1-2.5-19.2-7.5c-5.1-5-7.7-11.3-7.7-18.8c0-7.7,2.6-14.1,7.7-19.2C181.4,342,187.9,339.5,195.8,339.5 M196.1,346.5   c-5.8,0-10.6,1.8-14.4,5.6c-3.8,3.7-5.6,8.4-5.6,14.2c0,5.6,1.9,10.2,5.7,13.9c3.8,3.7,8.5,5.6,14.2,5.6c5.7,0,10.4-1.9,14.2-5.7   c3.8-3.8,5.7-8.5,5.7-14.1c0-5.5-1.9-10.1-5.7-13.8C206.3,348.4,201.6,346.5,196.1,346.5"
   id="path10" />
	<path
   d="M276.3,380v8.1c-5.4,3-11.5,4.4-18.6,4.4c-5.7,0-10.5-1.1-14.5-3.5c-4-2.3-7.1-5.5-9.4-9.6c-2.3-4.1-3.5-8.5-3.5-13.2   c0-7.5,2.6-13.9,7.9-19s11.8-7.7,19.6-7.7c5.3,0,11.3,1.4,17.9,4.3v8c-6-3.5-11.8-5.2-17.5-5.2c-5.8,0-10.7,1.9-14.6,5.6   c-3.9,3.7-5.8,8.4-5.8,14.1c0,5.7,1.9,10.3,5.7,14c3.8,3.7,8.7,5.5,14.6,5.5C264.4,385.8,270.4,383.8,276.3,380"
   id="path12" />
	<polygon
   points="321.3,340.2 328.6,340.2 328.6,392 321.3,392 321.3,369.5 292.6,369.5 292.6,392 285.3,392 285.3,340.2    292.6,340.2 292.6,362.6 321.3,362.6  "
   id="polygon14" />
	<polygon
   points="339.8,340.2 368.7,340.2 368.7,346.8 347.1,346.8 347.1,362.6 368,362.6 368,369.2 347.1,369.2 347.1,385.3    369.4,385.3 369.4,391.9 339.8,391.9  "
   id="polygon16" />
	<rect
   x="374.6"
   y="371.6"
   width="18.2"
   height="7.2"
   id="rect18" />
	<path
   d="M401,392v-51.8h16.2c4.9,0,8.8,1.3,11.6,4c2.9,2.7,4.4,6.2,4.4,10.7c0,3-0.7,5.7-2.2,8c-1.5,2.3-3.5,4-6.1,5   c-2.6,1.1-6.3,1.6-11.1,1.6h-5.4V392H401z M415.9,346.8h-7.6v16.2h8c3,0,5.3-0.7,6.9-2.1c1.6-1.4,2.4-3.4,2.4-6.1   C425.6,349.4,422.3,346.8,415.9,346.8"
   id="path20" />
	<path
   d="M464.5,339.5c7.9,0,14.4,2.5,19.7,7.6s7.9,11.4,7.9,19s-2.6,13.9-7.9,18.9c-5.3,5-12,7.5-20,7.5c-7.7,0-14.1-2.5-19.2-7.5   c-5.1-5-7.7-11.3-7.7-18.8c0-7.7,2.6-14.1,7.7-19.2C450.1,342,456.7,339.5,464.5,339.5 M464.8,346.5c-5.8,0-10.6,1.8-14.4,5.6   c-3.8,3.7-5.6,8.4-5.6,14.2c0,5.6,1.9,10.2,5.7,13.9c3.8,3.7,8.5,5.6,14.2,5.6c5.7,0,10.4-1.9,14.2-5.7c3.8-3.8,5.7-8.5,5.7-14.1   c0-5.5-1.9-10.1-5.7-13.8C475.1,348.4,470.4,346.5,464.8,346.5"
   id="path22" />
	<path
   d="M513.7,370.3l-5.6-3.4c-3.5-2.2-6-4.3-7.4-6.4c-1.5-2.1-2.2-4.5-2.2-7.2c0-4.1,1.4-7.4,4.2-9.9c2.8-2.5,6.4-3.8,10.9-3.8   c4.3,0,8.2,1.2,11.7,3.6v8.4c-3.7-3.6-7.6-5.4-11.9-5.4c-2.4,0-4.3,0.6-5.9,1.7c-1.5,1.1-2.3,2.6-2.3,4.3c0,1.5,0.6,3,1.7,4.4   c1.1,1.4,2.9,2.8,5.4,4.3l5.6,3.4c6.2,3.8,9.3,8.6,9.3,14.4c0,4.1-1.4,7.5-4.1,10.1c-2.7,2.6-6.3,3.9-10.7,3.9   c-5,0-9.6-1.6-13.8-4.7v-9.4c4,5.1,8.5,7.6,13.7,7.6c2.3,0,4.2-0.6,5.7-1.9c1.5-1.3,2.3-2.9,2.3-4.9   C520.4,376.1,518.2,373.1,513.7,370.3"
   id="path24" />
	<path
   d="M551.6,339.9h5.1l22.9,52h-7.5l-6.8-15.3h-21.8l-6.4,15.3h-7.5L551.6,339.9z M562.4,370.1l-8.2-18.7l-7.6,18.7H562.4z"
   id="path26" />
	<polygon
   points="607.7,340.2 616.6,340.2 597.7,364.6 597.7,392 590.2,392 590.2,364.6 571.4,340.2 580.2,340.2 593.9,358.1  "
   id="polygon28" />
	<polygon
   points="20,410 23.8,410 23.8,435.5 35.7,435.5 35.7,439.3 20,439.3  "
   id="polygon30" />
	<path
   d="M47.4,409.8h2.7l11.8,29.4H58l-3.5-8.7H43.3l-3.3,8.7h-3.9L47.4,409.8z M53,426.9l-4.3-10.6l-4,10.6H53z"
   id="path32" />
	<path
   d="M73.7,439.3h-8.9V410h6.9c2.2,0,3.9,0.3,5.1,1c1.2,0.6,2.2,1.5,2.8,2.7c0.6,1.1,1,2.5,1,4c0,2.9-1.3,4.9-4,6.2   c1.9,0.4,3.5,1.3,4.6,2.6c1.1,1.4,1.7,3,1.7,4.9c0,1.5-0.3,2.8-1,4c-0.7,1.2-1.7,2.1-3,2.9C77.4,438.9,75.8,439.3,73.7,439.3    M71.8,413.7h-3.3v8.8h2.5c2,0,3.4-0.4,4.3-1.3c0.9-0.9,1.3-1.9,1.3-3.3C76.7,415.1,75.1,413.7,71.8,413.7 M72.1,426.3h-3.5v9.3   h3.7c2.1,0,3.5-0.2,4.2-0.5c0.7-0.4,1.3-0.9,1.8-1.7c0.4-0.8,0.7-1.6,0.7-2.4c0-0.9-0.2-1.7-0.7-2.5c-0.5-0.7-1.1-1.3-2-1.7   C75.4,426.4,74,426.3,72.1,426.3"
   id="path34" />
	<path
   d="M99.5,409.6c4.1,0,7.5,1.4,10.2,4.3c2.7,2.9,4.1,6.5,4.1,10.8c0,4.3-1.4,7.9-4.1,10.7c-2.7,2.8-6.2,4.2-10.4,4.2   c-4,0-7.3-1.4-9.9-4.2c-2.6-2.8-4-6.4-4-10.6c0-4.4,1.3-8,4-10.9C92.1,411,95.5,409.6,99.5,409.6 M99.7,413.6c-3,0-5.5,1-7.5,3.1   c-1.9,2.1-2.9,4.8-2.9,8c0,3.2,1,5.8,2.9,7.9c1.9,2.1,4.4,3.2,7.3,3.2c2.9,0,5.4-1.1,7.4-3.2c2-2.1,3-4.8,3-8c0-3.1-1-5.7-3-7.8   C105,414.6,102.6,413.6,99.7,413.6"
   id="path36" />
	<path
   d="M118.6,439.3V410h6.6c2.7,0,4.8,0.7,6.4,2.2c1.6,1.5,2.4,3.5,2.4,6c0,1.7-0.4,3.2-1.1,4.4c-0.8,1.2-1.9,2.2-3.3,2.8   c0.8,0.6,1.7,1.4,2.5,2.5c0.8,1.1,1.9,2.9,3.4,5.6c0.9,1.7,1.7,2.9,2.2,3.7l1.4,2.1h-4.5l-1.1-1.9c0-0.1-0.1-0.2-0.2-0.4l-0.7-1.1   l-1.2-2.1l-1.3-2.3c-0.8-1.2-1.5-2.2-2.1-2.9c-0.6-0.7-1.2-1.2-1.8-1.5c-0.5-0.3-1.4-0.5-2.6-0.5h-1v12.7H118.6z M123.5,413.6h-1.1   v9.2h1.4c1.9,0,3.2-0.2,4-0.6c0.7-0.4,1.3-0.9,1.7-1.6c0.4-0.7,0.6-1.6,0.6-2.5c0-0.9-0.2-1.8-0.7-2.5c-0.4-0.7-1.1-1.3-1.9-1.6   C126.6,413.7,125.3,413.6,123.5,413.6"
   id="path38" />
	<path
   d="M150.3,409.8h2.7l11.8,29.4h-3.9l-3.5-8.7h-11.3l-3.3,8.7h-3.9L150.3,409.8z M155.8,426.9l-4.3-10.6l-4,10.6H155.8z"
   id="path40" />
	<polygon
   points="161.5,409.9 183.6,409.9 183.6,413.7 174.4,413.7 174.4,439.3 170.6,439.3 170.6,413.7 161.5,413.7  "
   id="polygon42" />
	<path
   d="M197.6,409.6c4.1,0,7.5,1.4,10.2,4.3c2.7,2.9,4.1,6.5,4.1,10.8c0,4.3-1.4,7.9-4.1,10.7c-2.7,2.8-6.2,4.2-10.4,4.2   c-4,0-7.3-1.4-9.9-4.2c-2.6-2.8-4-6.4-4-10.6c0-4.4,1.3-8,4-10.9C190.1,411,193.5,409.6,197.6,409.6 M197.7,413.6   c-3,0-5.5,1-7.5,3.1c-1.9,2.1-2.9,4.8-2.9,8c0,3.2,1,5.8,2.9,7.9c1.9,2.1,4.4,3.2,7.3,3.2c2.9,0,5.4-1.1,7.4-3.2c2-2.1,3-4.8,3-8   c0-3.1-1-5.7-3-7.8C203,414.6,200.6,413.6,197.7,413.6"
   id="path44" />
	<rect
   x="216.5"
   y="410"
   width="3.8"
   height="29.3"
   id="rect46" />
	<path
   d="M226.3,439.3V410h6.6c2.7,0,4.8,0.7,6.4,2.2c1.6,1.5,2.4,3.5,2.4,6c0,1.7-0.4,3.2-1.1,4.4c-0.8,1.2-1.9,2.2-3.3,2.8   c0.8,0.6,1.7,1.4,2.5,2.5c0.8,1.1,1.9,2.9,3.4,5.6c0.9,1.7,1.7,2.9,2.2,3.7l1.4,2.1h-4.5l-1.1-1.9c0-0.1-0.1-0.2-0.2-0.4l-0.7-1.1   l-1.2-2.1l-1.3-2.3c-0.8-1.2-1.5-2.2-2.1-2.9c-0.6-0.7-1.2-1.2-1.8-1.5c-0.5-0.3-1.4-0.5-2.6-0.5h-1v12.7H226.3z M231.2,413.6h-1.1   v9.2h1.4c1.9,0,3.2-0.2,4-0.6c0.7-0.4,1.3-0.9,1.7-1.6c0.4-0.7,0.6-1.6,0.6-2.5c0-0.9-0.2-1.8-0.7-2.5c-0.4-0.7-1.1-1.3-1.9-1.6   C234.4,413.7,233,413.6,231.2,413.6"
   id="path48" />
	<polygon
   points="249.5,410 264.5,410 264.5,413.7 253.3,413.7 253.3,422.6 264.1,422.6 264.1,426.4 253.3,426.4 253.3,435.5    264.9,435.5 264.9,439.2 249.5,439.2  "
   id="polygon50" />
	<path
   d="M279.7,439.2V410h8.9c3.6,0,6.4,0.6,8.5,1.8c2.1,1.2,3.7,2.9,5,5.3c1.2,2.3,1.9,4.8,1.9,7.6c0,1.9-0.3,3.8-1,5.6   c-0.7,1.8-1.6,3.4-2.9,4.7c-1.3,1.4-2.8,2.5-4.5,3.2c-1,0.4-1.9,0.7-2.7,0.9c-0.8,0.1-2.4,0.2-4.8,0.2H279.7z M288.2,413.7h-4.7   v21.8h4.8c1.9,0,3.4-0.1,4.4-0.4c1-0.3,1.9-0.6,2.6-1.1c0.7-0.4,1.3-1,1.9-1.6c1.9-2.1,2.8-4.8,2.8-7.9c0-3.2-1-5.7-2.9-7.7   c-0.7-0.7-1.5-1.3-2.4-1.8c-0.9-0.5-1.8-0.8-2.6-0.9C291.3,413.8,290,413.7,288.2,413.7"
   id="path52" />
	<polygon
   points="308.7,410 323.6,410 323.6,413.7 312.4,413.7 312.4,422.6 323.3,422.6 323.3,426.4 312.4,426.4 312.4,435.5    324,435.5 324,439.2 308.7,439.2  "
   id="polygon54" />
	<path
   d="M328.1,439.3V410h6.6c2.7,0,4.8,0.7,6.4,2.2c1.6,1.5,2.4,3.5,2.4,6c0,1.7-0.4,3.2-1.1,4.4c-0.8,1.2-1.9,2.2-3.3,2.8   c0.8,0.6,1.7,1.4,2.5,2.5c0.8,1.1,1.9,2.9,3.4,5.6c0.9,1.7,1.7,2.9,2.2,3.7l1.4,2.1H344l-1.1-1.9c0-0.1-0.1-0.2-0.2-0.4l-0.7-1.1   l-1.2-2.1l-1.3-2.3c-0.8-1.2-1.5-2.2-2.1-2.9c-0.6-0.7-1.2-1.2-1.8-1.5c-0.5-0.3-1.4-0.5-2.6-0.5h-1v12.7H328.1z M333,413.6h-1.1   v9.2h1.4c1.9,0,3.2-0.2,4-0.6c0.7-0.4,1.3-0.9,1.7-1.6c0.4-0.7,0.6-1.6,0.6-2.5c0-0.9-0.2-1.8-0.7-2.5c-0.4-0.7-1.1-1.3-1.9-1.6   C336.2,413.7,334.9,413.6,333,413.6"
   id="path56" />
	<polygon
   points="372.4,410 375.9,410 375.9,439.3 372.1,439.3 372.1,416.5 364,427.8 363.3,427.8 355.1,416.5 355.1,439.3    351.3,439.3 351.3,410 354.9,410 363.7,422  "
   id="polygon58" />
	<path
   d="M390,409.8h2.7l11.8,29.4h-3.9l-3.5-8.7h-11.3l-3.3,8.7h-3.9L390,409.8z M395.6,426.9l-4.3-10.6l-4,10.6H395.6z"
   id="path60" />
	<polygon
   points="401.3,409.9 423.4,409.9 423.4,413.7 414.1,413.7 414.1,439.3 410.4,439.3 410.4,413.7 401.3,413.7  "
   id="polygon62" />
	<path
   d="M437.4,409.6c4.1,0,7.5,1.4,10.2,4.3c2.7,2.9,4.1,6.5,4.1,10.8c0,4.3-1.4,7.9-4.1,10.7c-2.7,2.8-6.2,4.2-10.4,4.2   c-4,0-7.3-1.4-9.9-4.2c-2.6-2.8-4-6.4-4-10.6c0-4.4,1.3-8,4-10.9C429.9,411,433.3,409.6,437.4,409.6 M437.5,413.6   c-3,0-5.5,1-7.5,3.1c-1.9,2.1-2.9,4.8-2.9,8c0,3.2,1,5.8,2.9,7.9c1.9,2.1,4.4,3.2,7.3,3.2c2.9,0,5.4-1.1,7.4-3.2c2-2.1,3-4.8,3-8   c0-3.1-1-5.7-3-7.8C442.8,414.6,440.4,413.6,437.5,413.6"
   id="path64" />
	<polygon
   points="456.3,410 460.1,410 460.1,435.5 471.9,435.5 471.9,439.3 456.3,439.3  "
   id="polygon66" />
	<path
   d="M488.2,409.6c4.1,0,7.5,1.4,10.2,4.3c2.7,2.9,4.1,6.5,4.1,10.8c0,4.3-1.4,7.9-4.1,10.7c-2.7,2.8-6.2,4.2-10.4,4.2   c-4,0-7.3-1.4-9.9-4.2c-2.6-2.8-4-6.4-4-10.6c0-4.4,1.3-8,4-10.9C480.7,411,484.1,409.6,488.2,409.6 M488.3,413.6   c-3,0-5.5,1-7.5,3.1c-1.9,2.1-2.9,4.8-2.9,8c0,3.2,1,5.8,2.9,7.9c1.9,2.1,4.4,3.2,7.3,3.2c2.9,0,5.4-1.1,7.4-3.2c2-2.1,3-4.8,3-8   c0-3.1-1-5.7-3-7.8C493.6,414.6,491.2,413.6,488.3,413.6"
   id="path68" />
	<path
   d="M521.4,424.8h8.9v12.4c-3.2,1.6-6.5,2.4-9.7,2.4c-4.4,0-7.9-1.4-10.5-4.2c-2.6-2.8-3.9-6.3-3.9-10.5c0-4.4,1.4-8,4.1-10.9   c2.7-2.9,6.1-4.4,10.2-4.4c1.5,0,2.9,0.2,4.2,0.5c1.3,0.3,3,1,5.1,1.9v4.3c-3.2-2-6.3-3-9.4-3c-2.9,0-5.3,1.1-7.3,3.3   c-2,2.2-3,4.9-3,8c0,3.3,1,6,3,8.1c2,2.1,4.5,3.2,7.6,3.2c1.5,0,3.3-0.4,5.4-1.1l0.4-0.1v-6.1h-5.1V424.8z"
   id="path70" />
	<rect
   x="535.8"
   y="410"
   width="3.8"
   height="29.3"
   id="rect72" />
	<path
   d="M572,441.1l-3.8,4.1c-1.2-0.1-2.4-0.3-3.7-0.7c-1.3-0.4-2.6-0.9-3.9-1.6s-3.1-1.9-5.3-3.6c-3.2-0.6-5.8-2.3-7.9-5.1   c-2.1-2.7-3.1-5.9-3.1-9.5c0-4.4,1.3-8,4-10.9c2.7-2.9,6.1-4.3,10.2-4.3c4.1,0,7.5,1.4,10.2,4.3c2.7,2.8,4,6.4,4,10.7   c0,3.6-1,6.8-3.1,9.5c-2,2.7-4.7,4.5-7.9,5.2l1,0.4c3.1,1.3,5.3,2,6.7,2C570.1,441.7,571,441.5,572,441.1 M558.4,413.6   c-3,0-5.4,1.1-7.4,3.2c-1.9,2.1-2.9,4.8-2.9,8c0,3.2,1,5.8,2.9,7.9c1.9,2.1,4.4,3.1,7.3,3.1c2.9,0,5.4-1.1,7.3-3.2   c2-2.1,3-4.8,3-7.9c0-3.2-1-5.8-2.9-8C563.9,414.6,561.4,413.6,558.4,413.6"
   id="path74" />
	<path
   d="M595.7,410h3.8v16.6c0,2.2-0.1,4-0.4,5.1c-0.3,1.1-0.7,2.1-1.1,2.9s-1,1.4-1.6,2c-2.1,2-4.8,3-8.2,3c-3.4,0-6.2-1-8.3-3   c-0.6-0.6-1.2-1.3-1.6-2.1c-0.4-0.8-0.8-1.7-1.1-2.8c-0.3-1.1-0.4-2.8-0.4-5.2V410h3.8v16.6c0,2.8,0.3,4.7,0.9,5.7   c0.6,1.1,1.4,1.9,2.6,2.6c1.1,0.6,2.5,1,4.1,1c2.2,0,4.1-0.7,5.5-1.9c0.7-0.7,1.3-1.5,1.6-2.5c0.3-0.9,0.5-2.6,0.5-4.9V410z"
   id="path76" />
	<polygon
   points="604.7,410 619.7,410 619.7,413.7 608.5,413.7 608.5,422.6 619.3,422.6 619.3,426.4 608.5,426.4 608.5,435.5    620,435.5 620,439.2 604.7,439.2  "
   id="polygon78" />
	<rect
   x="274.2"
   y="199.2"
   class="st0"
   width="96"
   height="122.9"
   id="rect80" />
</g>
</svg>